<svg width="100" height="52" viewBox="0 0 100 52" fill="none" xmlns="http://www.w3.org/2000/svg">
<path d="M40 10C33.8672 13.4265 27.7979 17.3751 24.6667 27.3333L27.3333 31.3333C31.3333 16.6667 36.9768 13.8191 40 10Z" fill="#E82B4B"/>
<path d="M29.3333 10C25.0196 14.0322 21.7124 20.7239 20.598 23.6193L17.0392 16.3271H9.81373L24 42.4444L21.8922 50L0 10H29.3333Z" fill="#E82B4B"/>
<path d="M61.242 42V31.794C61.242 30.478 60.976 29.456 60.444 28.728C59.94 27.972 59.184 27.594 58.176 27.594C57.364 27.594 56.51 27.846 55.614 28.35C54.746 28.854 54.088 29.554 53.64 30.45L52.086 29.4C52.842 28.224 53.654 27.244 54.522 26.46C55.39 25.648 56.314 25.046 57.294 24.654C58.274 24.234 59.296 24.024 60.36 24.024C61.956 24.024 63.314 24.598 64.434 25.746C65.554 26.866 66.114 28.434 66.114 30.45V42H61.242ZM50.07 42V31.794C50.07 30.478 49.804 29.456 49.272 28.728C48.74 27.972 47.984 27.594 47.004 27.594C46.444 27.594 45.856 27.706 45.24 27.93C44.624 28.154 44.05 28.476 43.518 28.896C42.986 29.316 42.552 29.834 42.216 30.45L40.704 29.4C41.46 28.224 42.272 27.244 43.14 26.46C44.036 25.648 44.988 25.046 45.996 24.654C47.032 24.234 48.096 24.024 49.188 24.024C50.756 24.024 52.1 24.598 53.22 25.746C54.368 26.866 54.942 28.434 54.942 30.45V42H50.07ZM38.646 42V24.738L42.636 23.856L43.518 27.468V42H38.646ZM72.0895 42V24.738L76.9615 23.856V42H72.0895ZM74.5255 20.454C73.6015 20.454 72.8595 20.188 72.2995 19.656C71.7395 19.124 71.4595 18.41 71.4595 17.514C71.4595 16.618 71.7395 15.904 72.2995 15.372C72.8595 14.812 73.6015 14.532 74.5255 14.532C75.4215 14.532 76.1495 14.812 76.7095 15.372C77.2695 15.904 77.5495 16.618 77.5495 17.514C77.5495 18.41 77.2695 19.124 76.7095 19.656C76.1495 20.188 75.4215 20.454 74.5255 20.454ZM80.6329 42L87.4789 32.97L81.3469 24.318H87.3949L90.4609 29.82L93.7789 24.318H99.0289L92.7709 32.76L99.3229 42H93.2749L89.7469 35.826L86.0929 42H80.6329Z" fill="white"/>
</svg>
