<svg width="52" height="52" viewBox="0 0 52 52" fill="none" xmlns="http://www.w3.org/2000/svg">
<circle cx="26" cy="26" r="5" fill="#E82B4B"/>
<path d="M16.1584 13.7863C15.121 15.1 14.0817 16.4779 13.0404 17.9198L13.0326 17.9306L13.0253 17.9419C10.1648 22.3847 7.70884 27.0752 5.68702 31.9567H0.569241L0.56927 30.2929L0.569212 30.2875C0.537447 27.3455 1.31661 24.4515 2.82122 21.9231C4.32463 19.3967 6.49428 17.3328 9.09249 15.9575C11.3192 14.8604 13.7049 14.1282 16.1584 13.7863ZM34.0584 38.9637L34.069 38.9569L34.0792 38.9495C35.526 37.9101 36.9042 36.8739 38.2138 35.8411C37.8719 38.2948 37.1397 40.6807 36.0425 42.9075C34.6671 45.5057 32.6033 47.6754 30.0769 49.1788C27.5485 50.6834 24.6545 51.4626 21.7125 51.4308V51.4308H21.7071H20.0433V46.3128C24.9253 44.2875 29.6158 41.828 34.0584 38.9637ZM20.0433 40.49L20.0433 40.03L20.0433 40.0275C20.033 37.8902 19.1793 35.8433 17.668 34.332C16.1566 32.8207 14.1098 31.967 11.9725 31.9567H11.97H11.5103C13.1638 28.1546 15.1296 24.4956 17.388 21.0174C27.138 7.41691 36.335 0.807176 45.491 0.500002C47.778 0.501135 49.2409 0.972044 50.1445 1.87982C51.0485 2.78801 51.499 4.24023 51.5 6.46423C51.2163 15.6347 44.6073 24.8466 30.9848 34.6206C27.5052 36.8755 23.8456 38.8386 20.0433 40.49ZM39.5173 18.3921C39.5173 16.8249 38.8947 15.3218 37.7865 14.2135C36.6782 13.1053 35.1751 12.4827 33.6079 12.4827C32.0406 12.4827 30.5375 13.1053 29.4292 14.2135C28.321 15.3218 27.6984 16.8249 27.6984 18.3921C27.6984 19.9594 28.321 21.4625 29.4292 22.5708C30.5375 23.679 32.0406 24.3016 33.6079 24.3016C35.1751 24.3016 36.6782 23.679 37.7865 22.5708C38.8947 21.4625 39.5173 19.9594 39.5173 18.3921ZM14.2612 45.5676C13.9602 46.2944 13.5189 46.9549 12.9626 47.5113C12.5335 47.9398 11.8607 48.3533 11.0173 48.7391C10.181 49.1217 9.21034 49.4623 8.21412 49.7589C6.22216 50.352 4.16582 50.7581 2.95536 50.9732C2.95518 50.9732 2.95501 50.9732 2.95484 50.9733L0.615846 51.3842L1.02682 49.0447C1.02684 49.0446 1.02686 49.0445 1.02688 49.0444C1.24074 47.8344 1.64688 45.778 2.24024 43.7859C2.53698 42.7897 2.87778 41.8191 3.26056 40.9828C3.64656 40.1394 4.06014 39.4665 4.48873 39.0374C5.61241 37.9139 7.13639 37.2827 8.72545 37.2827C9.51232 37.2827 10.2915 37.4376 11.0184 37.7388C11.7454 38.0399 12.406 38.4812 12.9624 39.0376C13.5188 39.594 13.9601 40.2546 14.2612 40.9816C14.5624 41.7085 14.7173 42.4877 14.7173 43.2746C14.7173 44.0614 14.5624 44.8406 14.2612 45.5676Z" stroke="#111111"/>
</svg>
