<svg width="422" height="662" viewBox="0 0 422 662" fill="none" xmlns="http://www.w3.org/2000/svg">
<mask id="path-1-inside-1_844_18" fill="white">
<path d="M-42.0812 634.068C9.62267 656.772 66.2754 665.871 122.488 660.499C178.701 655.127 232.605 635.463 279.073 603.377C325.541 571.292 363.028 527.851 387.968 477.188C412.908 426.525 424.472 370.324 421.56 313.93C418.647 257.536 401.356 202.824 371.33 155C341.304 107.175 299.542 67.8272 250.016 40.6988C200.49 13.5703 144.848 -0.436552 88.3803 0.0103667C31.913 0.457286 -23.5011 15.3431 -72.5914 43.2521L-19.0466 137.434C13.976 118.66 51.2527 108.647 89.2378 108.346C127.223 108.045 164.653 117.468 197.969 135.717C231.285 153.966 259.378 180.435 279.576 212.606C299.774 244.777 311.406 281.581 313.365 319.517C315.324 357.453 307.545 395.259 290.768 429.34C273.991 463.42 248.774 492.642 217.515 514.226C186.257 535.81 149.996 549.037 112.182 552.651C74.368 556.265 36.2581 550.144 1.47736 534.872L-42.0812 634.068Z"/>
</mask>
<path d="M-42.0812 634.068C9.62267 656.772 66.2754 665.871 122.488 660.499C178.701 655.127 232.605 635.463 279.073 603.377C325.541 571.292 363.028 527.851 387.968 477.188C412.908 426.525 424.472 370.324 421.56 313.93C418.647 257.536 401.356 202.824 371.33 155C341.304 107.175 299.542 67.8272 250.016 40.6988C200.49 13.5703 144.848 -0.436552 88.3803 0.0103667C31.913 0.457286 -23.5011 15.3431 -72.5914 43.2521L-19.0466 137.434C13.976 118.66 51.2527 108.647 89.2378 108.346C127.223 108.045 164.653 117.468 197.969 135.717C231.285 153.966 259.378 180.435 279.576 212.606C299.774 244.777 311.406 281.581 313.365 319.517C315.324 357.453 307.545 395.259 290.768 429.34C273.991 463.42 248.774 492.642 217.515 514.226C186.257 535.81 149.996 549.037 112.182 552.651C74.368 556.265 36.2581 550.144 1.47736 534.872L-42.0812 634.068Z" stroke="#F3F3F3" stroke-width="220" mask="url(#path-1-inside-1_844_18)"/>
<mask id="path-2-inside-2_844_18" fill="white">
<path d="M-106.899 596.324C-60.6666 630.808 -6.22539 652.613 51.0295 659.578C108.284 666.543 166.365 658.426 219.517 636.032C272.669 613.637 319.047 577.743 354.055 531.906C389.063 486.068 411.486 431.879 419.102 374.707L311.711 360.401C306.588 398.86 291.504 435.313 267.955 466.148C244.405 496.982 213.207 521.128 177.453 536.192C141.698 551.257 102.627 556.717 64.1122 552.032C25.5973 547.346 -11.0248 532.678 -42.1253 509.481L-106.899 596.324Z"/>
</mask>
<path d="M-106.899 596.324C-60.6666 630.808 -6.22539 652.613 51.0295 659.578C108.284 666.543 166.365 658.426 219.517 636.032C272.669 613.637 319.047 577.743 354.055 531.906C389.063 486.068 411.486 431.879 419.102 374.707L311.711 360.401C306.588 398.86 291.504 435.313 267.955 466.148C244.405 496.982 213.207 521.128 177.453 536.192C141.698 551.257 102.627 556.717 64.1122 552.032C25.5973 547.346 -11.0248 532.678 -42.1253 509.481L-106.899 596.324Z" stroke="#E82B4B" stroke-width="220" mask="url(#path-2-inside-2_844_18)"/>
</svg>
