<svg width="52" height="52" viewBox="0 0 52 52" fill="none" xmlns="http://www.w3.org/2000/svg">
<circle cx="26" cy="26" r="5" fill="#E82B4B"/>
<path d="M29.1862 21.3842L29.272 21.4485L29.3765 21.472C31.3407 21.9134 33.4878 22.1667 35.75 22.1667C40.3026 22.1667 44.4492 21.1835 47.4757 19.5693C49.2133 18.6426 50.6214 17.483 51.5 16.1539V17.3333C51.5 19.3661 50.0119 21.3177 47.3455 22.8279C44.6964 24.3283 40.987 25.3248 36.8157 25.4721L36.3333 25.4892V25.9718V30.3052V30.8231L36.851 30.8049C41.147 30.6532 45.021 29.6265 47.8384 28.0305C49.408 27.1413 50.6828 26.0535 51.5 24.8183V26C51.5 28.0328 50.0119 29.9843 47.3455 31.4946C44.6964 32.995 40.987 33.9915 36.8157 34.1388L36.3333 34.1558V34.6385V38.9718V39.4898L36.851 39.4715C41.147 39.3198 45.021 38.2932 47.8384 36.6972C49.408 35.808 50.6828 34.7202 51.5 33.485V34.6667C51.5 36.7852 49.8815 38.8195 47.0051 40.3536C44.1501 41.8763 40.1717 42.8333 35.75 42.8333C34.6545 42.8333 33.5868 42.7737 32.5533 42.6628L32 42.6035V43.16V43.3333C32 45.4519 30.3815 47.4862 27.5051 49.0203C24.6501 50.543 20.6717 51.5 16.25 51.5C11.8283 51.5 7.84986 50.543 4.99492 49.0203C2.11849 47.4862 0.5 45.4519 0.5 43.3333V42.1539C1.37862 43.483 2.78669 44.6426 4.52433 45.5693C7.55081 47.1835 11.6974 48.1667 16.25 48.1667C20.8026 48.1667 24.9492 47.1835 27.9757 45.5693C30.9807 43.9666 33 41.6676 33 39V34.6667H32.5H32C32 36.7852 30.3815 38.8195 27.5051 40.3536C24.6501 41.8763 20.6717 42.8333 16.25 42.8333C11.8283 42.8333 7.84986 41.8763 4.99492 40.3536C2.11849 38.8195 0.5 36.7852 0.5 34.6667V33.4873C1.37862 34.8163 2.78669 35.9759 4.52433 36.9027C7.55081 38.5168 11.6974 39.5 16.25 39.5C20.8026 39.5 24.9492 38.5168 27.9757 36.9027C30.9807 35.3 33 33.001 33 30.3333V26V25.8137V25.3137H32.5H32.4827H31.9651L31.983 25.8309C31.9849 25.886 31.9919 25.9387 31.9955 25.9649C31.9958 25.9675 31.9961 25.97 31.9964 25.9721C31.9992 25.993 31.9999 26.0007 32 26.0021C31.9989 28.1199 30.3806 30.1534 27.5051 31.687C24.6501 33.2096 20.6717 34.1667 16.25 34.1667C11.8283 34.1667 7.84986 33.2096 4.99492 31.687C2.11849 30.1529 0.5 28.1185 0.5 26C0.5 23.8815 2.11849 21.8471 4.99492 20.313C7.84986 18.7904 11.8283 17.8333 16.25 17.8333C21.6435 17.8333 26.3527 19.2596 29.1862 21.3842ZM20 8.66667C20 6.54815 21.6185 4.51381 24.4949 2.9797C27.3499 1.45705 31.3283 0.5 35.75 0.5C40.1717 0.5 44.1501 1.45705 47.0051 2.9797C49.8815 4.51381 51.5 6.54815 51.5 8.66667C51.5 10.7852 49.8815 12.8195 47.0051 14.3536C44.1501 15.8763 40.1717 16.8333 35.75 16.8333C31.3283 16.8333 27.3499 15.8763 24.4949 14.3536C21.6185 12.8195 20 10.7852 20 8.66667Z" stroke="#111111"/>
</svg>
