<svg width="70" height="70" viewBox="0 0 70 70" fill="none" xmlns="http://www.w3.org/2000/svg">
<rect width="70" height="70" fill="#1E1E1E"/>
<g clip-path="url(#clip0_0_1)">
<rect width="1920" height="10862" transform="translate(-312 -1689)" fill="white"/>
<path d="M0 21.6031H21.5743M21.5743 21.6031V0M21.5743 21.6031L10.0111 10.229" stroke="#111111"/>
<path d="M0 48.3969H21.5743M21.5743 48.3969V70M21.5743 48.3969L10.0111 59.771" stroke="#111111"/>
<path d="M70 21.6031H48.4257M48.4257 21.6031V0M48.4257 21.6031L59.9889 10.229" stroke="#111111"/>
<path d="M70 48.3969H48.4257M48.4257 48.3969V70M48.4257 48.3969L59.9889 59.771" stroke="#111111"/>
<path d="M42.3536 27.6564C43.1881 28.8725 43.7883 30.2568 44.0905 31.747L43.6004 31.8464C43.7396 32.5324 43.8126 33.2423 43.8126 33.9695C43.8126 34.6966 43.7396 35.4065 43.6004 36.0926L44.0905 36.192C43.7883 37.6821 43.1881 39.0665 42.3536 40.2825L41.9413 39.9996C41.1354 41.174 40.1004 42.1847 38.899 42.9694L39.1724 43.388C37.9441 44.1903 36.5498 44.7663 35.051 45.0555L34.9563 44.5646C34.2678 44.6975 33.556 44.7672 32.827 44.7672C32.0981 44.7672 31.3863 44.6975 30.6978 44.5646L30.6031 45.0555C29.1043 44.7663 27.71 44.1903 26.4817 43.388L26.7551 42.9694C25.5537 42.1847 24.5187 41.174 23.7128 39.9996L23.3005 40.2825C22.466 39.0665 21.8658 37.6821 21.5636 36.192L22.0537 36.0926C21.9145 35.4065 21.8415 34.6966 21.8415 33.9695C21.8415 33.2423 21.9145 32.5324 22.0537 31.8464L21.5636 31.747C21.8658 30.2568 22.466 28.8725 23.3005 27.6564L23.7128 27.9394C24.5187 26.765 25.5537 25.7542 26.7551 24.9695L26.4817 24.5509C27.71 23.7486 29.1043 23.1726 30.6031 22.8834L30.6978 23.3743C31.3863 23.2415 32.0981 23.1718 32.827 23.1718C33.556 23.1718 34.2678 23.2415 34.9563 23.3743L35.051 22.8834C36.5498 23.1726 37.9441 23.7486 39.1724 24.5509L38.899 24.9695C40.1004 25.7542 41.1354 26.765 41.9413 27.9394L42.3536 27.6564Z" stroke="#111111" stroke-dasharray="4 4"/>
<circle cx="33" cy="34" r="5" fill="#E82B4B"/>
<path d="M44.235 33.9695H58.8248" stroke="#111111" stroke-dasharray="4 4"/>
<path d="M32.5942 45.2671V59.7709" stroke="#111111"/>
<path d="M21.3415 33.9695H6.90686" stroke="#111111"/>
<path d="M32.7495 22.748V8.54956" stroke="#111111"/>
</g>
<defs>
<clipPath id="clip0_0_1">
<rect width="1920" height="10862" fill="white" transform="translate(-312 -1689)"/>
</clipPath>
</defs>
</svg>
