<?xml version="1.0" encoding="UTF-8"?>
<!DOCTYPE svg PUBLIC "-//W3C//DTD SVG 1.1//EN" "http://www.w3.org/Graphics/SVG/1.1/DTD/svg11.dtd">
<svg xmlns="http://www.w3.org/2000/svg" version="1.1" width="1080px" height="1081px" style="shape-rendering:geometricPrecision; text-rendering:geometricPrecision; image-rendering:optimizeQuality; fill-rule:evenodd; clip-rule:evenodd" xmlns:xlink="http://www.w3.org/1999/xlink">
<g><path style="opacity:1" fill="#d62246" d="M -0.5,-0.5 C 129.5,-0.5 259.5,-0.5 389.5,-0.5C 401.317,14.4591 406.151,31.4591 404,50.5C 403.71,52.9519 403.044,55.2852 402,57.5C 395.553,65.0611 391.219,73.7278 389,83.5C 387.766,96.4531 387.099,109.453 387,122.5C 381.333,114.833 375.667,107.167 370,99.5C 369.346,98.3044 368.846,98.3044 368.5,99.5C 372.094,113.407 374.927,127.407 377,141.5C 366.124,132.019 362.791,134.353 367,148.5C 372.617,167.725 381.45,185.225 393.5,201C 387.677,198.088 381.677,195.088 375.5,192C 373.527,191.505 371.527,191.338 369.5,191.5C 371.556,198.064 374.723,204.064 379,209.5C 388.046,221.091 397.213,232.591 406.5,244C 405.833,244.667 405.167,244.667 404.5,244C 398.353,237.516 391.353,232.183 383.5,228C 380.433,226.836 378.767,227.836 378.5,231C 384.614,247.73 392.947,263.23 403.5,277.5C 403,277.833 402.5,278.167 402,278.5C 397.111,276.182 392.111,275.516 387,276.5C 386.743,279.017 387.41,281.35 389,283.5C 393.532,288.367 398.366,292.867 403.5,297C 398.921,295.883 394.588,293.883 390.5,291C 379.635,286.795 368.968,287.462 358.5,293C 350.13,297.834 349.463,303.501 356.5,310C 359.126,312.146 362.126,313.479 365.5,314C 362.833,315.333 360.167,316.667 357.5,318C 356.446,319.388 356.28,320.888 357,322.5C 360.672,325.342 364.172,328.342 367.5,331.5C 352.087,333.488 336.753,335.988 321.5,339C 316.601,340.449 311.935,342.449 307.5,345C 303.99,346.907 302.824,349.74 304,353.5C 313.297,362.067 324.13,367.9 336.5,371C 358.097,377.204 380.097,381.037 402.5,382.5C 409.833,383.167 417.167,383.833 424.5,384.5C 405.179,392.327 386.512,401.494 368.5,412C 362.096,415.735 356.263,420.235 351,425.5C 346.702,429.937 346.535,434.437 350.5,439C 354.54,441.427 358.874,443.094 363.5,444C 413.019,448.195 461.852,444.029 510,431.5C 511.722,431.611 511.888,432.111 510.5,433C 496.459,438.567 482.793,444.9 469.5,452C 463.651,455.328 459.984,460.161 458.5,466.5C 470.838,466.667 483.171,466.5 495.5,466C 500.894,464.535 506.228,462.869 511.5,461C 532.829,451.503 554.495,442.836 576.5,435C 578.5,434.5 580.5,434 582.5,433.5C 584.598,435.489 586.598,437.655 588.5,440C 590.744,440.906 593.077,441.406 595.5,441.5C 612.8,436.85 628.467,429.017 642.5,418C 660.614,404.22 677.114,388.72 692,371.5C 697.271,364.459 700.771,356.625 702.5,348C 701.688,343.85 699.354,340.85 695.5,339C 724.942,337.366 747.109,323.866 762,298.5C 776.548,272.811 778.881,246.144 769,218.5C 758.151,197.338 740.985,185.505 717.5,183C 716.402,185.498 716.568,187.998 718,190.5C 721.639,196.112 724.472,202.112 726.5,208.5C 726.471,210.029 725.804,211.196 724.5,212C 705.692,217.619 686.692,222.452 667.5,226.5C 655.189,224.354 648.022,217.021 646,204.5C 643.286,185.952 645.953,168.285 654,151.5C 661.034,141.473 670.2,133.973 681.5,129C 695.167,124 708.833,119 722.5,114C 726.408,111.968 729.575,109.134 732,105.5C 732.649,102.082 731.149,100.749 727.5,101.5C 716.092,103.985 704.592,105.985 693,107.5C 689.772,108.008 687.272,107.008 685.5,104.5C 694.629,99.3924 703.962,94.559 713.5,90C 723.177,84.6581 732.01,78.1581 740,70.5C 742.166,67.667 743.666,64.5003 744.5,61C 743.177,58.0011 740.843,56.5011 737.5,56.5C 739.092,50.644 741.258,44.9773 744,39.5C 744.667,37.8333 744.667,36.1667 744,34.5C 736.246,39.9632 728.079,44.7965 719.5,49C 718.167,49.6667 716.833,49.6667 715.5,49C 718.273,46.6166 720.439,43.7833 722,40.5C 725.377,29.2864 728.377,17.9531 731,6.5C 732.18,4.14011 733.347,1.80678 734.5,-0.5C 849.5,-0.5 964.5,-0.5 1079.5,-0.5C 1079.5,359.833 1079.5,720.167 1079.5,1080.5C 949.5,1080.5 819.5,1080.5 689.5,1080.5C 677.984,1065.44 673.151,1048.44 675,1029.5C 675.29,1027.05 675.956,1024.71 677,1022.5C 683.727,1014.71 688.06,1005.71 690,995.5C 691.182,982.869 691.848,970.203 692,957.5C 697.667,965.167 703.333,972.833 709,980.5C 707.473,967.044 704.973,953.71 701.5,940.5C 701.667,939.833 701.833,939.167 702,938.5C 704.906,942.464 708.572,944.13 713,943.5C 709.676,920.185 700.843,899.185 686.5,880.5C 686.5,879.833 686.833,879.5 687.5,879.5C 693.786,883.226 700.286,886.56 707,889.5C 708.5,889.333 709.333,888.5 709.5,887C 707.641,882.113 705.141,877.613 702,873.5C 691.833,860.667 681.667,847.833 671.5,835C 672.167,834.333 672.833,834.333 673.5,835C 679.977,841.814 687.31,847.481 695.5,852C 698.567,853.164 700.233,852.164 700.5,849C 698.786,842.526 696.286,836.36 693,830.5C 687.456,820.574 681.289,811.074 674.5,802C 678.71,802.964 683.044,803.797 687.5,804.5C 691.149,805.251 692.649,803.918 692,800.5C 687.542,793.708 682.042,787.875 675.5,783C 681.295,785.06 686.961,787.727 692.5,791C 705.188,794.129 716.355,791.296 726,782.5C 728.506,777.361 727.339,773.194 722.5,770C 719.583,768.472 716.583,767.139 713.5,766C 715.833,765 718.167,764 720.5,763C 722.62,761.477 722.953,759.644 721.5,757.5C 718.126,754.49 714.792,751.49 711.5,748.5C 728.076,747.011 744.409,744.177 760.5,740C 767.338,738.931 772.338,735.431 775.5,729.5C 774.122,725.285 771.455,722.119 767.5,720C 746.037,709.306 723.37,702.639 699.5,700C 686.887,698.17 674.221,697.003 661.5,696.5C 658.941,696.802 656.607,696.468 654.5,695.5C 674.488,687.339 693.822,677.839 712.5,667C 720.283,662.884 726.45,657.05 731,649.5C 732.035,644.078 729.869,640.578 724.5,639C 720.877,637.844 717.211,636.844 713.5,636C 664.641,632.203 616.474,636.369 569,648.5C 568.5,648.333 568,648.167 567.5,648C 582.93,641.451 597.93,634.118 612.5,626C 617.086,622.942 619.753,618.775 620.5,613.5C 608.162,613.333 595.829,613.5 583.5,614C 577.105,615.798 570.772,617.798 564.5,620C 542.351,630.605 519.518,639.438 496,646.5C 494.393,643.798 492.226,641.631 489.5,640C 485.5,639.333 481.5,639.333 477.5,640C 470.162,642.168 463.162,645.168 456.5,649C 430.625,664.87 407.791,684.37 388,707.5C 382.29,714.587 378.457,722.587 376.5,731.5C 377.082,735.92 379.415,739.087 383.5,741C 353.396,743.133 330.896,757.3 316,783.5C 299.742,812.453 299.409,841.453 315,870.5C 326.661,886.912 342.494,895.912 362.5,897.5C 362.662,895.473 362.495,893.473 362,891.5C 358.745,885.992 355.745,880.325 353,874.5C 352.257,872.559 352.424,870.726 353.5,869C 373.29,861.636 393.623,856.636 414.5,854C 424.437,857.34 430.604,864.174 433,874.5C 435.36,893.318 432.693,911.318 425,928.5C 417.571,939.253 407.738,947.086 395.5,952C 381.054,956.149 367.054,961.482 353.5,968C 351.333,970.167 349.167,972.333 347,974.5C 346.14,977.478 347.307,978.812 350.5,978.5C 361.784,976.179 373.117,974.179 384.5,972.5C 386.5,972.667 388.5,972.833 390.5,973C 391.91,973.368 392.91,974.201 393.5,975.5C 381.899,981.635 370.233,987.802 358.5,994C 350.227,998.886 343.061,1005.05 337,1012.5C 332.441,1019.02 333.941,1022.69 341.5,1023.5C 339.908,1029.36 337.742,1035.02 335,1040.5C 334.333,1042.17 334.333,1043.83 335,1045.5C 342.754,1040.04 350.921,1035.2 359.5,1031C 360.833,1030.33 362.167,1030.33 363.5,1031C 359.449,1034.72 356.616,1039.22 355,1044.5C 352.423,1056.82 348.923,1068.82 344.5,1080.5C 229.5,1080.5 114.5,1080.5 -0.5,1080.5C -0.5,720.167 -0.5,359.833 -0.5,-0.5 Z"/></g>
<g><path style="opacity:0.999" fill="#fefefe" d="M 389.5,-0.5 C 504.5,-0.5 619.5,-0.5 734.5,-0.5C 733.347,1.80678 732.18,4.14011 731,6.5C 728.377,17.9531 725.377,29.2864 722,40.5C 720.439,43.7833 718.273,46.6166 715.5,49C 716.833,49.6667 718.167,49.6667 719.5,49C 728.079,44.7965 736.246,39.9632 744,34.5C 744.667,36.1667 744.667,37.8333 744,39.5C 741.258,44.9773 739.092,50.644 737.5,56.5C 740.843,56.5011 743.177,58.0011 744.5,61C 743.666,64.5003 742.166,67.667 740,70.5C 732.01,78.1581 723.177,84.6581 713.5,90C 703.962,94.559 694.629,99.3924 685.5,104.5C 687.272,107.008 689.772,108.008 693,107.5C 704.592,105.985 716.092,103.985 727.5,101.5C 731.149,100.749 732.649,102.082 732,105.5C 729.575,109.134 726.408,111.968 722.5,114C 708.833,119 695.167,124 681.5,129C 670.2,133.973 661.034,141.473 654,151.5C 645.953,168.285 643.286,185.952 646,204.5C 648.022,217.021 655.189,224.354 667.5,226.5C 686.692,222.452 705.692,217.619 724.5,212C 725.804,211.196 726.471,210.029 726.5,208.5C 724.472,202.112 721.639,196.112 718,190.5C 716.568,187.998 716.402,185.498 717.5,183C 740.985,185.505 758.151,197.338 769,218.5C 778.881,246.144 776.548,272.811 762,298.5C 747.109,323.866 724.942,337.366 695.5,339C 699.354,340.85 701.688,343.85 702.5,348C 700.771,356.625 697.271,364.459 692,371.5C 677.114,388.72 660.614,404.22 642.5,418C 628.467,429.017 612.8,436.85 595.5,441.5C 593.077,441.406 590.744,440.906 588.5,440C 586.598,437.655 584.598,435.489 582.5,433.5C 580.5,434 578.5,434.5 576.5,435C 554.495,442.836 532.829,451.503 511.5,461C 506.228,462.869 500.894,464.535 495.5,466C 483.171,466.5 470.838,466.667 458.5,466.5C 459.984,460.161 463.651,455.328 469.5,452C 482.793,444.9 496.459,438.567 510.5,433C 511.888,432.111 511.722,431.611 510,431.5C 461.852,444.029 413.019,448.195 363.5,444C 358.874,443.094 354.54,441.427 350.5,439C 346.535,434.437 346.702,429.937 351,425.5C 356.263,420.235 362.096,415.735 368.5,412C 386.512,401.494 405.179,392.327 424.5,384.5C 425.473,384.013 426.473,383.513 427.5,383C 419.173,382.5 410.84,382.334 402.5,382.5C 380.097,381.037 358.097,377.204 336.5,371C 324.13,367.9 313.297,362.067 304,353.5C 302.824,349.74 303.99,346.907 307.5,345C 311.935,342.449 316.601,340.449 321.5,339C 336.753,335.988 352.087,333.488 367.5,331.5C 364.172,328.342 360.672,325.342 357,322.5C 356.28,320.888 356.446,319.388 357.5,318C 360.167,316.667 362.833,315.333 365.5,314C 362.126,313.479 359.126,312.146 356.5,310C 349.463,303.501 350.13,297.834 358.5,293C 368.968,287.462 379.635,286.795 390.5,291C 394.588,293.883 398.921,295.883 403.5,297C 398.366,292.867 393.532,288.367 389,283.5C 387.41,281.35 386.743,279.017 387,276.5C 392.111,275.516 397.111,276.182 402,278.5C 402.5,278.167 403,277.833 403.5,277.5C 392.947,263.23 384.614,247.73 378.5,231C 378.767,227.836 380.433,226.836 383.5,228C 391.353,232.183 398.353,237.516 404.5,244C 405.167,244.667 405.833,244.667 406.5,244C 397.213,232.591 388.046,221.091 379,209.5C 374.723,204.064 371.556,198.064 369.5,191.5C 371.527,191.338 373.527,191.505 375.5,192C 381.677,195.088 387.677,198.088 393.5,201C 381.45,185.225 372.617,167.725 367,148.5C 362.791,134.353 366.124,132.019 377,141.5C 374.927,127.407 372.094,113.407 368.5,99.5C 368.846,98.3044 369.346,98.3044 370,99.5C 375.667,107.167 381.333,114.833 387,122.5C 387.099,109.453 387.766,96.4531 389,83.5C 391.219,73.7278 395.553,65.0611 402,57.5C 403.044,55.2852 403.71,52.9519 404,50.5C 406.151,31.4591 401.317,14.4591 389.5,-0.5 Z"/></g>
<g><path style="opacity:1" fill="#f2b6c1" d="M 402.5,382.5 C 410.84,382.334 419.173,382.5 427.5,383C 426.473,383.513 425.473,384.013 424.5,384.5C 417.167,383.833 409.833,383.167 402.5,382.5 Z"/></g>
<g><path style="opacity:0.999" fill="#fefefe" d="M 654.5,695.5 C 653.527,695.987 652.527,696.487 651.5,697C 655.027,697.808 658.36,697.641 661.5,696.5C 674.221,697.003 686.887,698.17 699.5,700C 723.37,702.639 746.037,709.306 767.5,720C 771.455,722.119 774.122,725.285 775.5,729.5C 772.338,735.431 767.338,738.931 760.5,740C 744.409,744.177 728.076,747.011 711.5,748.5C 714.792,751.49 718.126,754.49 721.5,757.5C 722.953,759.644 722.62,761.477 720.5,763C 718.167,764 715.833,765 713.5,766C 716.583,767.139 719.583,768.472 722.5,770C 727.339,773.194 728.506,777.361 726,782.5C 716.355,791.296 705.188,794.129 692.5,791C 686.961,787.727 681.295,785.06 675.5,783C 682.042,787.875 687.542,793.708 692,800.5C 692.649,803.918 691.149,805.251 687.5,804.5C 683.044,803.797 678.71,802.964 674.5,802C 681.289,811.074 687.456,820.574 693,830.5C 696.286,836.36 698.786,842.526 700.5,849C 700.233,852.164 698.567,853.164 695.5,852C 687.31,847.481 679.977,841.814 673.5,835C 672.833,834.333 672.167,834.333 671.5,835C 681.667,847.833 691.833,860.667 702,873.5C 705.141,877.613 707.641,882.113 709.5,887C 709.333,888.5 708.5,889.333 707,889.5C 700.286,886.56 693.786,883.226 687.5,879.5C 686.312,878.636 685.145,877.636 684,876.5C 683.721,878.412 684.554,879.746 686.5,880.5C 700.843,899.185 709.676,920.185 713,943.5C 708.572,944.13 704.906,942.464 702,938.5C 701.833,939.167 701.667,939.833 701.5,940.5C 704.973,953.71 707.473,967.044 709,980.5C 703.333,972.833 697.667,965.167 692,957.5C 691.848,970.203 691.182,982.869 690,995.5C 688.06,1005.71 683.727,1014.71 677,1022.5C 675.956,1024.71 675.29,1027.05 675,1029.5C 673.151,1048.44 677.984,1065.44 689.5,1080.5C 574.5,1080.5 459.5,1080.5 344.5,1080.5C 348.923,1068.82 352.423,1056.82 355,1044.5C 356.616,1039.22 359.449,1034.72 363.5,1031C 362.167,1030.33 360.833,1030.33 359.5,1031C 350.921,1035.2 342.754,1040.04 335,1045.5C 334.333,1043.83 334.333,1042.17 335,1040.5C 337.742,1035.02 339.908,1029.36 341.5,1023.5C 333.941,1022.69 332.441,1019.02 337,1012.5C 343.061,1005.05 350.227,998.886 358.5,994C 370.233,987.802 381.899,981.635 393.5,975.5C 392.91,974.201 391.91,973.368 390.5,973C 388.5,972.833 386.5,972.667 384.5,972.5C 373.117,974.179 361.784,976.179 350.5,978.5C 347.307,978.812 346.14,977.478 347,974.5C 349.167,972.333 351.333,970.167 353.5,968C 367.054,961.482 381.054,956.149 395.5,952C 407.738,947.086 417.571,939.253 425,928.5C 432.693,911.318 435.36,893.318 433,874.5C 430.604,864.174 424.437,857.34 414.5,854C 393.623,856.636 373.29,861.636 353.5,869C 352.424,870.726 352.257,872.559 353,874.5C 355.745,880.325 358.745,885.992 362,891.5C 362.495,893.473 362.662,895.473 362.5,897.5C 342.494,895.912 326.661,886.912 315,870.5C 299.409,841.453 299.742,812.453 316,783.5C 330.896,757.3 353.396,743.133 383.5,741C 379.415,739.087 377.082,735.92 376.5,731.5C 378.457,722.587 382.29,714.587 388,707.5C 407.791,684.37 430.625,664.87 456.5,649C 463.162,645.168 470.162,642.168 477.5,640C 481.5,639.333 485.5,639.333 489.5,640C 492.226,641.631 494.393,643.798 496,646.5C 519.518,639.438 542.351,630.605 564.5,620C 570.772,617.798 577.105,615.798 583.5,614C 595.829,613.5 608.162,613.333 620.5,613.5C 619.753,618.775 617.086,622.942 612.5,626C 597.93,634.118 582.93,641.451 567.5,648C 568,648.167 568.5,648.333 569,648.5C 616.474,636.369 664.641,632.203 713.5,636C 717.211,636.844 720.877,637.844 724.5,639C 729.869,640.578 732.035,644.078 731,649.5C 726.45,657.05 720.283,662.884 712.5,667C 693.822,677.839 674.488,687.339 654.5,695.5 Z"/></g>
<g><path style="opacity:1" fill="#e9889b" d="M 654.5,695.5 C 656.607,696.468 658.941,696.802 661.5,696.5C 658.36,697.641 655.027,697.808 651.5,697C 652.527,696.487 653.527,695.987 654.5,695.5 Z"/></g>
<g><path style="opacity:1" fill="#ed95a3" d="M 687.5,879.5 C 686.833,879.5 686.5,879.833 686.5,880.5C 684.554,879.746 683.721,878.412 684,876.5C 685.145,877.636 686.312,878.636 687.5,879.5 Z"/></g>
</svg>
