<?xml version="1.0" encoding="UTF-8"?>
<!DOCTYPE svg PUBLIC "-//W3C//DTD SVG 1.1//EN" "http://www.w3.org/Graphics/SVG/1.1/DTD/svg11.dtd">
<svg xmlns="http://www.w3.org/2000/svg" version="1.1" width="1081px" height="1081px" style="shape-rendering:geometricPrecision; text-rendering:geometricPrecision; image-rendering:optimizeQuality; fill-rule:evenodd; clip-rule:evenodd" xmlns:xlink="http://www.w3.org/1999/xlink">
<g><path style="opacity:0.999" fill="#d62246" d="M 390.5,-0.5 C 505.167,-0.5 619.833,-0.5 734.5,-0.5C 734.5,-0.166667 734.5,0.166667 734.5,0.5C 730.503,10.103 727.67,20.103 726,30.5C 724.242,36.116 721.908,41.4494 719,46.5C 718.097,47.7014 716.931,48.5348 715.5,49C 717.913,49.4838 720.246,49.1505 722.5,48C 730,43.7509 737.334,39.2509 744.5,34.5C 745.206,36.7657 745.039,39.0991 744,41.5C 741.747,45.503 739.914,49.6696 738.5,54C 738.585,55.1074 738.919,56.1074 739.5,57C 744.183,57.3989 745.683,59.8989 744,64.5C 740.218,71.9485 734.718,77.7818 727.5,82C 714.482,89.5098 701.149,96.5098 687.5,103C 686.167,104.333 686.167,105.667 687.5,107C 689.333,107.167 691.167,107.333 693,107.5C 704.887,105.823 716.72,103.823 728.5,101.5C 732.073,101.427 733.24,103.094 732,106.5C 727.785,111.361 722.618,114.861 716.5,117C 705.759,120.469 695.092,124.136 684.5,128C 660.458,137.717 647.625,155.55 646,181.5C 644.766,192.064 645.766,202.397 649,212.5C 652.223,218.723 657.057,223.223 663.5,226C 684.623,223.387 705.289,218.554 725.5,211.5C 726.647,209.235 726.814,206.902 726,204.5C 722.641,198.087 719.474,191.587 716.5,185C 717.229,183.008 718.729,182.174 721,182.5C 751.446,188.613 769.446,206.946 775,237.5C 778.453,275.416 764.953,305.582 734.5,328C 724.963,333.79 714.63,337.29 703.5,338.5C 701.076,338.192 698.743,338.526 696.5,339.5C 696.624,340.107 696.957,340.44 697.5,340.5C 701.166,341.818 702.833,344.484 702.5,348.5C 701.757,354.991 699.591,360.991 696,366.5C 677.959,390.212 656.459,410.046 631.5,426C 621.384,432.89 610.384,437.89 598.5,441C 594.256,442.013 590.423,441.18 587,438.5C 585.991,436.975 585.491,435.308 585.5,433.5C 579.365,434.367 573.365,435.867 567.5,438C 550.603,444.448 533.937,451.448 517.5,459C 498.957,467.104 479.623,469.771 459.5,467C 459.091,462.641 460.757,458.975 464.5,456C 479.115,447.01 494.448,439.343 510.5,433C 511.696,432.346 511.696,431.846 510.5,431.5C 466.857,442.332 422.523,447.166 377.5,446C 368.751,445.651 360.418,443.651 352.5,440C 348.247,436.58 347.413,432.413 350,427.5C 360.006,417.245 371.506,409.079 384.5,403C 397.951,396.273 411.618,390.106 425.5,384.5C 426.289,384.217 426.956,383.717 427.5,383C 418.173,382.5 408.839,382.334 399.5,382.5C 369.972,380.488 341.639,373.655 314.5,362C 311.577,359.955 308.743,357.788 306,355.5C 303.926,352.209 304.092,349.043 306.5,346C 310.221,343.473 314.221,341.473 318.5,340C 334.652,336.097 350.985,333.264 367.5,331.5C 363.527,328.194 359.86,324.527 356.5,320.5C 358.79,317.355 361.79,315.188 365.5,314C 360.62,312.645 356.453,310.145 353,306.5C 351.348,301.154 352.848,296.987 357.5,294C 366.496,288.2 376.163,286.533 386.5,289C 392.19,292.016 397.856,294.683 403.5,297C 396.601,291.935 390.934,285.769 386.5,278.5C 387.55,276.127 389.383,275.127 392,275.5C 396.1,276.902 400.267,277.736 404.5,278C 396.12,266.08 388.62,253.58 382,240.5C 380.1,236.368 379.267,232.034 379.5,227.5C 388.186,229.682 395.519,234.182 401.5,241C 402.931,241.465 404.097,242.299 405,243.5C 405.167,243.167 405.333,242.833 405.5,242.5C 396.143,230.977 386.976,219.31 378,207.5C 374.14,202.782 371.64,197.449 370.5,191.5C 378.894,192.779 386.394,196.113 393,201.5C 387.24,192.675 381.906,183.341 377,173.5C 372.189,163.235 368.689,152.568 366.5,141.5C 366.667,139.833 366.833,138.167 367,136.5C 367.561,135.978 368.228,135.645 369,135.5C 372.561,137.055 375.561,139.388 378,142.5C 378.167,141.833 378.333,141.167 378.5,140.5C 374.801,126.962 371.968,113.295 370,99.5C 376,107.5 382,115.5 388,123.5C 387.489,112.859 387.489,102.193 388,91.5C 389.671,79.1658 394.338,68.1658 402,58.5C 406.553,46.2109 406.553,33.8776 402,21.5C 399.175,13.869 395.342,6.86898 390.5,0.5C 390.5,0.166667 390.5,-0.166667 390.5,-0.5 Z"/></g>
<g><path style="opacity:0.937" fill="#f6ced6" d="M -0.5,-0.5 C 129.833,-0.5 260.167,-0.5 390.5,-0.5C 390.5,-0.166667 390.5,0.166667 390.5,0.5C 260.5,0.5 130.5,0.5 0.5,0.5C 0.5,360.167 0.5,719.833 0.5,1079.5C 115.5,1079.5 230.5,1079.5 345.5,1079.5C 345.5,1079.83 345.5,1080.17 345.5,1080.5C 230.167,1080.5 114.833,1080.5 -0.5,1080.5C -0.5,720.167 -0.5,359.833 -0.5,-0.5 Z"/></g>
<g><path style="opacity:1" fill="#fefefe" d="M 390.5,0.5 C 395.342,6.86898 399.175,13.869 402,21.5C 406.553,33.8776 406.553,46.2109 402,58.5C 394.338,68.1658 389.671,79.1658 388,91.5C 387.489,102.193 387.489,112.859 388,123.5C 382,115.5 376,107.5 370,99.5C 371.968,113.295 374.801,126.962 378.5,140.5C 378.333,141.167 378.167,141.833 378,142.5C 375.561,139.388 372.561,137.055 369,135.5C 368.228,135.645 367.561,135.978 367,136.5C 366.833,138.167 366.667,139.833 366.5,141.5C 368.689,152.568 372.189,163.235 377,173.5C 381.906,183.341 387.24,192.675 393,201.5C 386.394,196.113 378.894,192.779 370.5,191.5C 371.64,197.449 374.14,202.782 378,207.5C 386.976,219.31 396.143,230.977 405.5,242.5C 405.333,242.833 405.167,243.167 405,243.5C 404.097,242.299 402.931,241.465 401.5,241C 395.519,234.182 388.186,229.682 379.5,227.5C 379.267,232.034 380.1,236.368 382,240.5C 388.62,253.58 396.12,266.08 404.5,278C 400.267,277.736 396.1,276.902 392,275.5C 389.383,275.127 387.55,276.127 386.5,278.5C 390.934,285.769 396.601,291.935 403.5,297C 397.856,294.683 392.19,292.016 386.5,289C 376.163,286.533 366.496,288.2 357.5,294C 352.848,296.987 351.348,301.154 353,306.5C 356.453,310.145 360.62,312.645 365.5,314C 361.79,315.188 358.79,317.355 356.5,320.5C 359.86,324.527 363.527,328.194 367.5,331.5C 350.985,333.264 334.652,336.097 318.5,340C 314.221,341.473 310.221,343.473 306.5,346C 304.092,349.043 303.926,352.209 306,355.5C 308.743,357.788 311.577,359.955 314.5,362C 341.639,373.655 369.972,380.488 399.5,382.5C 408.167,383.167 416.833,383.833 425.5,384.5C 411.618,390.106 397.951,396.273 384.5,403C 371.506,409.079 360.006,417.245 350,427.5C 347.413,432.413 348.247,436.58 352.5,440C 360.418,443.651 368.751,445.651 377.5,446C 422.523,447.166 466.857,442.332 510.5,431.5C 511.696,431.846 511.696,432.346 510.5,433C 494.448,439.343 479.115,447.01 464.5,456C 460.757,458.975 459.091,462.641 459.5,467C 479.623,469.771 498.957,467.104 517.5,459C 533.937,451.448 550.603,444.448 567.5,438C 573.365,435.867 579.365,434.367 585.5,433.5C 585.491,435.308 585.991,436.975 587,438.5C 590.423,441.18 594.256,442.013 598.5,441C 610.384,437.89 621.384,432.89 631.5,426C 656.459,410.046 677.959,390.212 696,366.5C 699.591,360.991 701.757,354.991 702.5,348.5C 702.833,344.484 701.166,341.818 697.5,340.5C 699.5,339.833 701.5,339.167 703.5,338.5C 714.63,337.29 724.963,333.79 734.5,328C 764.953,305.582 778.453,275.416 775,237.5C 769.446,206.946 751.446,188.613 721,182.5C 718.729,182.174 717.229,183.008 716.5,185C 719.474,191.587 722.641,198.087 726,204.5C 726.814,206.902 726.647,209.235 725.5,211.5C 705.289,218.554 684.623,223.387 663.5,226C 657.057,223.223 652.223,218.723 649,212.5C 645.766,202.397 644.766,192.064 646,181.5C 647.625,155.55 660.458,137.717 684.5,128C 695.092,124.136 705.759,120.469 716.5,117C 722.618,114.861 727.785,111.361 732,106.5C 733.24,103.094 732.073,101.427 728.5,101.5C 716.72,103.823 704.887,105.823 693,107.5C 691.167,107.333 689.333,107.167 687.5,107C 686.167,105.667 686.167,104.333 687.5,103C 701.149,96.5098 714.482,89.5098 727.5,82C 734.718,77.7818 740.218,71.9485 744,64.5C 745.683,59.8989 744.183,57.3989 739.5,57C 738.919,56.1074 738.585,55.1074 738.5,54C 739.914,49.6696 741.747,45.503 744,41.5C 745.039,39.0991 745.206,36.7657 744.5,34.5C 737.334,39.2509 730,43.7509 722.5,48C 720.246,49.1505 717.913,49.4838 715.5,49C 716.931,48.5348 718.097,47.7014 719,46.5C 721.908,41.4494 724.242,36.116 726,30.5C 727.67,20.103 730.503,10.103 734.5,0.5C 849.5,0.5 964.5,0.5 1079.5,0.5C 1079.5,360.167 1079.5,719.833 1079.5,1079.5C 949.5,1079.5 819.5,1079.5 689.5,1079.5C 676.443,1062.82 672.276,1044.16 677,1023.5C 684.345,1014.81 689.012,1004.81 691,993.5C 692.534,981.504 692.867,969.504 692,957.5C 698,965.5 704,973.5 710,981.5C 707.821,967.269 704.987,953.103 701.5,939C 701.667,938.5 701.833,938 702,937.5C 704.439,940.612 707.439,942.945 711,944.5C 711.772,944.355 712.439,944.022 713,943.5C 713.866,936.56 712.866,929.894 710,923.5C 703.95,906.893 695.45,891.726 684.5,878C 691.164,881.837 698.164,885.503 705.5,889C 706.793,889.49 708.127,889.657 709.5,889.5C 709.074,884.31 707.241,879.643 704,875.5C 693.741,861.985 683.241,848.652 672.5,835.5C 672.667,835.167 672.833,834.833 673,834.5C 678.874,840.043 685.041,845.21 691.5,850C 694.206,851.908 697.206,852.741 700.5,852.5C 701.034,847.099 699.867,842.099 697,837.5C 690.825,825.173 683.658,813.506 675.5,802.5C 678.436,802.134 681.436,802.634 684.5,804C 686.833,804.667 689.167,804.667 691.5,804C 692.554,802.612 692.72,801.112 692,799.5C 687.351,793.684 682.184,788.351 676.5,783.5C 676.833,783.167 677.167,782.833 677.5,782.5C 684.601,788.052 692.601,791.386 701.5,792.5C 711.612,792.412 720.112,788.746 727,781.5C 728.098,777.495 727.265,773.995 724.5,771C 721.289,769.148 717.956,767.481 714.5,766C 718.284,764.788 721.284,762.621 723.5,759.5C 719.875,756.009 716.209,752.509 712.5,749C 724.826,747.198 737.159,745.198 749.5,743C 758.951,741.686 767.451,738.186 775,732.5C 775.667,730.5 775.667,728.5 775,726.5C 770.712,721.091 765.212,717.258 758.5,715C 731.092,704.654 702.759,698.821 673.5,697.5C 667.5,696.833 661.5,696.167 655.5,695.5C 678.3,686.434 699.967,675.267 720.5,662C 723.667,658.833 726.833,655.667 730,652.5C 731.457,649.634 731.79,646.634 731,643.5C 723.614,637.563 715.114,634.73 705.5,635C 659.17,633.332 613.503,637.665 568.5,648C 576.231,643.802 584.231,640.136 592.5,637C 602.425,633.127 611.259,627.627 619,620.5C 620.202,618.323 620.702,615.989 620.5,613.5C 606.774,613.073 593.107,613.573 579.5,615C 557.94,623.114 536.606,631.78 515.5,641C 508.628,643.347 501.628,645.18 494.5,646.5C 494.201,643.358 492.534,641.191 489.5,640C 483.307,639.016 477.307,639.682 471.5,642C 436.981,659.177 407.814,683.01 384,713.5C 380.409,719.009 378.243,725.009 377.5,731.5C 377.349,736.033 379.349,739.2 383.5,741C 356.12,742.438 334.953,754.604 320,777.5C 302.047,805.989 299.714,835.656 313,866.5C 324.192,884.678 340.359,895.178 361.5,898C 362.574,897.261 363.241,896.261 363.5,895C 359.617,887.568 356.284,879.901 353.5,872C 353.833,870.833 354.167,869.667 354.5,868.5C 373.537,862.491 392.87,857.491 412.5,853.5C 425.065,856.569 432.231,864.569 434,877.5C 434.922,891.052 433.588,904.385 430,917.5C 426.243,929.927 418.743,939.427 407.5,946C 402.833,948.333 398.167,950.667 393.5,953C 380.526,956.88 367.859,961.546 355.5,967C 351.642,969.358 348.642,972.525 346.5,976.5C 347.527,978.024 349.027,978.691 351,978.5C 360.631,977.307 370.131,975.474 379.5,973C 384.204,972.352 388.871,972.519 393.5,973.5C 393.67,974.822 393.337,975.989 392.5,977C 377.193,983.984 362.526,991.984 348.5,1001C 343.585,1005.24 339.419,1010.08 336,1015.5C 334.35,1020.06 335.85,1022.73 340.5,1023.5C 340.833,1024.17 341.167,1024.83 341.5,1025.5C 339.887,1030.73 337.72,1035.73 335,1040.5C 334.202,1042.26 334.369,1043.93 335.5,1045.5C 342.335,1041.58 349.002,1037.42 355.5,1033C 358.351,1031.39 361.351,1030.73 364.5,1031C 361.269,1033.57 358.769,1036.73 357,1040.5C 353.934,1053.77 350.1,1066.77 345.5,1079.5C 230.5,1079.5 115.5,1079.5 0.5,1079.5C 0.5,719.833 0.5,360.167 0.5,0.5C 130.5,0.5 260.5,0.5 390.5,0.5 Z"/></g>
<g><path style="opacity:0.753" fill="#f2bac5" d="M 734.5,0.5 C 734.5,0.166667 734.5,-0.166667 734.5,-0.5C 849.833,-0.5 965.167,-0.5 1080.5,-0.5C 1080.5,359.833 1080.5,720.167 1080.5,1080.5C 950.167,1080.5 819.833,1080.5 689.5,1080.5C 689.5,1080.17 689.5,1079.83 689.5,1079.5C 819.5,1079.5 949.5,1079.5 1079.5,1079.5C 1079.5,719.833 1079.5,360.167 1079.5,0.5C 964.5,0.5 849.5,0.5 734.5,0.5 Z"/></g>
<g><path style="opacity:1" fill="#ed9baa" d="M 703.5,338.5 C 701.5,339.167 699.5,339.833 697.5,340.5C 696.957,340.44 696.624,340.107 696.5,339.5C 698.743,338.526 701.076,338.192 703.5,338.5 Z"/></g>
<g><path style="opacity:1" fill="#e57086" d="M 399.5,382.5 C 408.839,382.334 418.173,382.5 427.5,383C 426.956,383.717 426.289,384.217 425.5,384.5C 416.833,383.833 408.167,383.167 399.5,382.5 Z"/></g>
<g><path style="opacity:0.999" fill="#d62246" d="M 655.5,695.5 C 654.527,695.987 653.527,696.487 652.5,697C 659.492,697.5 666.492,697.666 673.5,697.5C 702.759,698.821 731.092,704.654 758.5,715C 765.212,717.258 770.712,721.091 775,726.5C 775.667,728.5 775.667,730.5 775,732.5C 767.451,738.186 758.951,741.686 749.5,743C 737.159,745.198 724.826,747.198 712.5,749C 716.209,752.509 719.875,756.009 723.5,759.5C 721.284,762.621 718.284,764.788 714.5,766C 717.956,767.481 721.289,769.148 724.5,771C 727.265,773.995 728.098,777.495 727,781.5C 720.112,788.746 711.612,792.412 701.5,792.5C 692.601,791.386 684.601,788.052 677.5,782.5C 677.167,782.833 676.833,783.167 676.5,783.5C 682.184,788.351 687.351,793.684 692,799.5C 692.72,801.112 692.554,802.612 691.5,804C 689.167,804.667 686.833,804.667 684.5,804C 681.436,802.634 678.436,802.134 675.5,802.5C 683.658,813.506 690.825,825.173 697,837.5C 699.867,842.099 701.034,847.099 700.5,852.5C 697.206,852.741 694.206,851.908 691.5,850C 685.041,845.21 678.874,840.043 673,834.5C 672.833,834.833 672.667,835.167 672.5,835.5C 683.241,848.652 693.741,861.985 704,875.5C 707.241,879.643 709.074,884.31 709.5,889.5C 708.127,889.657 706.793,889.49 705.5,889C 698.164,885.503 691.164,881.837 684.5,878C 695.45,891.726 703.95,906.893 710,923.5C 712.866,929.894 713.866,936.56 713,943.5C 712.439,944.022 711.772,944.355 711,944.5C 707.439,942.945 704.439,940.612 702,937.5C 701.833,938 701.667,938.5 701.5,939C 704.987,953.103 707.821,967.269 710,981.5C 704,973.5 698,965.5 692,957.5C 692.867,969.504 692.534,981.504 691,993.5C 689.012,1004.81 684.345,1014.81 677,1023.5C 672.276,1044.16 676.443,1062.82 689.5,1079.5C 689.5,1079.83 689.5,1080.17 689.5,1080.5C 574.833,1080.5 460.167,1080.5 345.5,1080.5C 345.5,1080.17 345.5,1079.83 345.5,1079.5C 350.1,1066.77 353.934,1053.77 357,1040.5C 358.769,1036.73 361.269,1033.57 364.5,1031C 361.351,1030.73 358.351,1031.39 355.5,1033C 349.002,1037.42 342.335,1041.58 335.5,1045.5C 334.369,1043.93 334.202,1042.26 335,1040.5C 337.72,1035.73 339.887,1030.73 341.5,1025.5C 341.167,1024.83 340.833,1024.17 340.5,1023.5C 335.85,1022.73 334.35,1020.06 336,1015.5C 339.419,1010.08 343.585,1005.24 348.5,1001C 362.526,991.984 377.193,983.984 392.5,977C 393.337,975.989 393.67,974.822 393.5,973.5C 388.871,972.519 384.204,972.352 379.5,973C 370.131,975.474 360.631,977.307 351,978.5C 349.027,978.691 347.527,978.024 346.5,976.5C 348.642,972.525 351.642,969.358 355.5,967C 367.859,961.546 380.526,956.88 393.5,953C 398.167,950.667 402.833,948.333 407.5,946C 418.743,939.427 426.243,929.927 430,917.5C 433.588,904.385 434.922,891.052 434,877.5C 432.231,864.569 425.065,856.569 412.5,853.5C 392.87,857.491 373.537,862.491 354.5,868.5C 354.167,869.667 353.833,870.833 353.5,872C 356.284,879.901 359.617,887.568 363.5,895C 363.241,896.261 362.574,897.261 361.5,898C 340.359,895.178 324.192,884.678 313,866.5C 299.714,835.656 302.047,805.989 320,777.5C 334.953,754.604 356.12,742.438 383.5,741C 379.349,739.2 377.349,736.033 377.5,731.5C 378.243,725.009 380.409,719.009 384,713.5C 407.814,683.01 436.981,659.177 471.5,642C 477.307,639.682 483.307,639.016 489.5,640C 492.534,641.191 494.201,643.358 494.5,646.5C 501.628,645.18 508.628,643.347 515.5,641C 536.606,631.78 557.94,623.114 579.5,615C 593.107,613.573 606.774,613.073 620.5,613.5C 620.702,615.989 620.202,618.323 619,620.5C 611.259,627.627 602.425,633.127 592.5,637C 584.231,640.136 576.231,643.802 568.5,648C 613.503,637.665 659.17,633.332 705.5,635C 715.114,634.73 723.614,637.563 731,643.5C 731.79,646.634 731.457,649.634 730,652.5C 726.833,655.667 723.667,658.833 720.5,662C 699.967,675.267 678.3,686.434 655.5,695.5 Z"/></g>
<g><path style="opacity:1" fill="#ea8a9c" d="M 655.5,695.5 C 661.5,696.167 667.5,696.833 673.5,697.5C 666.492,697.666 659.492,697.5 652.5,697C 653.527,696.487 654.527,695.987 655.5,695.5 Z"/></g>
</svg>
