<?xml version="1.0" encoding="UTF-8"?>
<svg id="Layer_2" data-name="Layer 2" xmlns="http://www.w3.org/2000/svg" viewBox="0 0 1800.02 444.09">
  <defs>
    <style>
      .cls-1 {
        fill: #d62246;
      }

      .cls-2 {
        fill: #fff;
      }
    </style>
  </defs>
  <g>
    <rect class="cls-2" width="441.57" height="441.53"/>
    <path class="cls-1" d="M441.57,0v441.53h-159.35c-5.21-6.81-7.8-14.99-5.3-23.22,6.42-7.45,6.76-16.97,5.94-27.01l8.01,10.68-4.01-18.7c11.59,12.41.52-17.53-7.2-24.73,23.31,15.08,2.15-7.75-4.82-17.49,22.06,19.9,7.63-4.48,1.29-13.35,11.8,3.58,7.41-1.68.04-7.93,3.4,1.08,5.9,3.96,9.91,4.18,9.48.09,17.45-7.11,5.86-10.86,7.63-2.58,2.03-3.79-.9-7.24,61.13-5.47-.6-23.22-24.43-20.85,77.37-32.78-2.67-28.22-34.38-19.9,3.66-2.84,22.7-8.06,21.71-14.47h-13.1c-8.18.56-28.61,12.32-38.43,13.61-2.89-13.44-45.62,20.38-47.86,32.83-.99,2.24-.69,4.31,2.41,5.86-31.62-.39-46.91,50.49-15.25,62.81,14.95,5.82.26-7.67,3.19-10.6.9-.86,22.92-6.46,24.17-6.16,10.47,2.46,8.96,16.07,7.37,23.65-4.22,20.25-28.48,17.15-34.16,25.37-4.05,5.77,16.89-3.23,18.74.65.65,1.34-21.97,8.57-24,17.53-.6,2.5,2.72,1.85,2.63,2.63-.21,2.5-3.83,7.45-2.76,8.62.52.52,9.61-6.76,12.02-6.03-5.13,3.53-4.7,15.47-7.84,20.12H0V0h159.35c5.21,6.81,7.8,14.99,5.3,23.22-6.42,7.45-6.76,16.97-5.94,27.01l-8.01-10.68,4.01,18.7c-11.59-12.41-.52,17.53,7.19,24.73-23.31-15.08-2.15,7.75,4.83,17.49-22.06-19.9-7.63,4.48-1.29,13.35-11.8-3.58-7.41,1.68-.04,7.93-3.4-1.08-5.9-3.96-9.91-4.18-9.48-.09-17.45,7.11-5.86,10.86-7.63,2.58-2.03,3.79.9,7.24-61.13,5.47.6,23.22,24.43,20.85-77.37,32.78,2.67,28.22,34.38,19.9-3.66,2.84-22.7,8.06-21.71,14.48h13.1c8.18-.56,28.61-12.32,38.43-13.61,2.84,13.44,45.58-20.38,47.86-32.83.99-2.24.69-4.31-2.41-5.86,31.62.39,46.91-50.49,15.25-62.81-14.95-5.82-.26,7.67-3.19,10.6-.9.86-22.92,6.46-24.17,6.16-10.47-2.46-8.96-16.07-7.37-23.65,4.22-20.25,28.48-17.15,34.16-25.37,4.05-5.77-16.89,3.23-18.74-.65-.65-1.38,21.97-8.57,24-17.53.6-2.5-2.72-1.85-2.63-2.63.22-2.5,3.83-7.45,2.76-8.62-.56-.52-9.61,6.76-12.02,6.03,5.13-3.53,4.7-15.47,7.84-20.12h141.09Z"/>
  </g>
  <path class="cls-2" d="M681.56,0h87.69v295.8h-87.69v-111.19h-63.77v111.19h-88.11V0h88.11v109.51h63.77V0Z"/>
  <path class="cls-2" d="M981.98,0l81.4,293.28-1.68,2.52h-95.24l-9.23-46.15h-62.94l-8.81,46.15h-94.82l-2.1-2.52L872.47,0h109.51ZM906.45,188.81h39.02l-4.2-20.14c-4.62-23.92-11.75-63.35-14.69-96.08h-1.68c-2.94,32.73-10.07,72.17-14.69,96.5l-3.78,19.72Z"/>
  <path class="cls-2" d="M1320.99,288.25l-2.94,7.55h-88.11l-53.29-101.54h-5.87v101.54h-88.11V0h103.63c75.52,0,111.19,33.15,111.19,98.6,0,36.5-14.68,62.52-40.28,77.2l63.78,112.45ZM1171.2,69.65v62.1h14.26c20.56,0,29.37-10.91,29.37-30.63,0-21.4-10.49-31.47-30.21-31.47h-13.43Z"/>
  <path class="cls-2" d="M1635.97,0l15.11,53.29c6.29,20.98,9.65,35.66,14.26,57.06h1.68c5.03-20.98,8.39-35.24,15.1-57.06L1697.65,0h100.7l1.68,2.94-89.37,177.06v115.8h-88.11v-115.8L1533.18,2.94l1.26-2.94h101.54Z"/>
  <path class="cls-2" d="M1552.59,103.22c0,62.94-32.73,100.7-101.96,100.7h-25.59v91.89h-88.11V0h102.79c77.2,0,112.86,35.24,112.86,103.21ZM1438.89,136.78c21.82,0,31.47-11.33,31.47-33.99,0-24.33-10.49-34.82-31.89-34.82h-13.43v68.81h13.85Z"/>
  <path class="cls-2" d="M529.68,388.67c0-34.44,20.09-56.19,49.39-56.19,9.97,0,19.63,2.57,28.7,7.4l-4.53,29.3h-1.06c-6.04-4.99-12.23-7.55-18.88-7.55-12.54,0-20.24,9.97-20.24,26.58s7.85,26.73,20.69,26.73c6.64,0,13.29-2.57,19.03-7.55h1.21l4.68,29.3c-9.21,4.83-19.18,7.4-29.45,7.4-30.36,0-49.54-21.75-49.54-55.43Z"/>
  <path class="cls-2" d="M707.14,438.81l-1.06,2.72h-31.72l-19.18-36.55h-2.11v36.55h-31.72v-106.48h37.31c27.19,0,40.02,11.93,40.02,35.49,0,13.14-5.29,22.5-14.5,27.79l22.96,40.47ZM653.22,360.12v22.35h5.13c7.4,0,10.57-3.93,10.57-11.03,0-7.7-3.78-11.33-10.87-11.33h-4.83Z"/>
  <path class="cls-2" d="M744.44,398.63v16.31h32.62l-2.87,26.58h-61.32v-106.48h61.32l2.87,26.73h-32.62v14.95h27.94v21.9h-27.94Z"/>
  <path class="cls-2" d="M850.76,335.05l29.3,105.57-.6.9h-34.29l-3.32-16.61h-22.66l-3.17,16.61h-34.13l-.75-.9,30.21-105.57h39.42ZM823.58,403.01h14.04l-1.51-7.25c-1.66-8.61-4.23-22.81-5.29-34.59h-.6c-1.06,11.78-3.62,25.98-5.29,34.74l-1.36,7.1Z"/>
  <path class="cls-2" d="M949.38,335.05v29h-23.41v77.48h-31.57v-77.48h-23.41v-29h78.39Z"/>
  <path class="cls-2" d="M957.98,335.05h31.72v106.48h-31.72v-106.48Z"/>
  <path class="cls-2" d="M1028.52,441.83l-31.42-105.88.75-.91h35.8l10.42,52.71c1.06,5.59,3.17,13.74,4.08,23.56h.6c.75-9.82,2.72-17.82,3.78-23.41l10.12-52.86h35.8l.75.91-31.57,105.88h-39.12Z"/>
  <path class="cls-2" d="M1138.16,398.63v16.31h32.62l-2.87,26.58h-61.32v-106.48h61.32l2.87,26.73h-32.62v14.95h27.94v21.9h-27.94Z"/>
</svg>