<?xml version="1.0" encoding="UTF-8"?>
<!DOCTYPE svg PUBLIC "-//W3C//DTD SVG 1.1//EN" "http://www.w3.org/Graphics/SVG/1.1/DTD/svg11.dtd">
<svg xmlns="http://www.w3.org/2000/svg" version="1.1" width="1801px" height="445px" style="shape-rendering:geometricPrecision; text-rendering:geometricPrecision; image-rendering:optimizeQuality; fill-rule:evenodd; clip-rule:evenodd" xmlns:xlink="http://www.w3.org/1999/xlink">
<g><path style="opacity:0.996" fill="#fefefe" d="M 159.5,0.5 C 159.5,0.166667 159.5,-0.166667 159.5,-0.5C 206.5,-0.5 253.5,-0.5 300.5,-0.5C 300.5,-0.166667 300.5,0.166667 300.5,0.5C 298.727,7.18649 296.394,13.6865 293.5,20C 297.106,19.3688 300.439,17.8688 303.5,15.5C 303.833,15.8333 304.167,16.1667 304.5,16.5C 303.399,18.6416 302.399,20.8083 301.5,23C 304.032,23.6122 304.865,25.1122 304,27.5C 302.403,30.2192 300.237,32.3859 297.5,34C 291.96,37.2696 286.293,40.2696 280.5,43C 281.944,44.0637 283.611,44.5637 285.5,44.5C 288.833,43.8333 292.167,43.1667 295.5,42.5C 296.833,42.8333 298.167,43.1667 299.5,43.5C 299.333,43.8333 299.167,44.1667 299,44.5C 290.479,48.1252 281.979,51.9585 273.5,56C 265.022,64.0608 262.189,73.8942 265,85.5C 265.883,88.1024 267.383,90.2691 269.5,92C 278.858,92.3844 287.858,90.7177 296.5,87C 297.022,86.4387 297.355,85.772 297.5,85C 295.73,81.6338 294.397,78.1338 293.5,74.5C 311.285,78.8072 319.119,90.1405 317,108.5C 313.212,126.291 302.378,136.458 284.5,139C 285.99,139.745 286.99,140.912 287.5,142.5C 284.998,150.178 280.664,156.678 274.5,162C 269.013,166.576 263.347,170.909 257.5,175C 253.272,177.532 248.772,179.365 244,180.5C 241.783,179.953 239.783,178.953 238,177.5C 226.121,181.855 214.288,186.355 202.5,191C 197.845,191.499 193.179,191.666 188.5,191.5C 188.744,188.737 190.077,186.571 192.5,185C 197.751,182.472 203.084,180.139 208.5,178C 209.696,177.346 209.696,176.846 208.5,176.5C 189.166,181.666 169.499,183.499 149.5,182C 146.483,181.495 144.149,179.995 142.5,177.5C 144.307,173.859 146.974,171.026 150.5,169C 157.46,164.686 164.793,161.186 172.5,158.5C 173.473,158.013 174.473,157.513 175.5,157C 172.518,156.502 169.518,156.335 166.5,156.5C 153.188,156.505 140.522,153.672 128.5,148C 124.751,146.243 124.085,143.909 126.5,141C 128.246,140.529 129.913,139.862 131.5,139C 137.873,138.015 144.206,136.848 150.5,135.5C 148.833,134.5 147.5,133.167 146.5,131.5C 147.09,130.201 148.09,129.368 149.5,129C 143.992,126.845 143.325,123.845 147.5,120C 149.702,118.978 152.035,118.478 154.5,118.5C 158.195,118.552 161.528,119.385 164.5,121C 162.316,118.984 160.316,116.817 158.5,114.5C 160.926,113.832 163.259,113.498 165.5,113.5C 161.509,107.685 158.176,101.518 155.5,95C 155.833,94.5 156.167,94 156.5,93.5C 160.111,95.2231 163.278,97.5564 166,100.5C 166.167,100.167 166.333,99.8333 166.5,99.5C 161.013,93.1911 156.013,86.5245 151.5,79.5C 151.833,79.1667 152.167,78.8333 152.5,78.5C 155.827,80.3364 159.161,81.8364 162.5,83C 155.465,75.1061 151.632,65.9395 151,55.5C 152.813,57.472 153.98,57.472 154.5,55.5C 153.547,50.7745 152.713,46.1078 152,41.5C 154,44.1667 156,46.8333 158,49.5C 157.221,39.9445 159.555,31.2779 165,23.5C 167.017,14.7494 165.184,7.08273 159.5,0.5 Z"/></g>
<g><path style="opacity:0.989" fill="#000000" d="M 529.5,-0.5 C 559.167,-0.5 588.833,-0.5 618.5,-0.5C 618.5,36.1667 618.5,72.8333 618.5,109.5C 639.5,109.5 660.5,109.5 681.5,109.5C 681.5,72.8333 681.5,36.1667 681.5,-0.5C 711.167,-0.5 740.833,-0.5 770.5,-0.5C 770.5,98.5 770.5,197.5 770.5,296.5C 740.833,296.5 711.167,296.5 681.5,296.5C 681.5,259.5 681.5,222.5 681.5,185.5C 660.5,185.5 639.5,185.5 618.5,185.5C 618.5,222.5 618.5,259.5 618.5,296.5C 588.833,296.5 559.167,296.5 529.5,296.5C 529.5,197.5 529.5,98.5 529.5,-0.5 Z"/></g>
<g><path style="opacity:0.989" fill="#000000" d="M 872.5,-0.5 C 909.167,-0.5 945.833,-0.5 982.5,-0.5C 1009.83,97.471 1037.16,195.471 1064.5,293.5C 1064.02,294.478 1063.36,295.311 1062.5,296C 1030.5,296.667 998.5,296.667 966.5,296C 962.928,280.971 959.928,265.804 957.5,250.5C 936.5,250.5 915.5,250.5 894.5,250.5C 892.05,265.868 889.383,281.201 886.5,296.5C 854.16,296.833 821.826,296.5 789.5,295.5C 789.013,294.554 788.68,293.554 788.5,292.5C 816.513,194.8 844.513,97.1334 872.5,-0.5 Z M 925.5,73.5 C 930.623,111.904 936.956,150.237 944.5,188.5C 932.167,188.5 919.833,188.5 907.5,188.5C 915.341,150.457 921.341,112.124 925.5,73.5 Z"/></g>
<g><path style="opacity:0.99" fill="#000000" d="M 1082.5,-0.5 C 1119.83,-0.5 1157.17,-0.5 1194.5,-0.5C 1217.36,-0.15551 1239.03,5.34449 1259.5,16C 1279.52,29.1824 1291.69,47.6824 1296,71.5C 1300.51,94.6605 1298.84,117.327 1291,139.5C 1284.1,155.401 1273.27,167.901 1258.5,177C 1279.96,214.115 1300.96,251.449 1321.5,289C 1320.68,291.472 1320.01,293.972 1319.5,296.5C 1289.5,296.667 1259.5,296.5 1229.5,296C 1212.09,262.508 1194.42,229.175 1176.5,196C 1174.87,195.506 1173.2,195.34 1171.5,195.5C 1171.5,229.167 1171.5,262.833 1171.5,296.5C 1141.83,296.5 1112.17,296.5 1082.5,296.5C 1082.5,197.5 1082.5,98.5 1082.5,-0.5 Z M 1171.5,70.5 C 1206.51,67.0038 1220.01,82.3372 1212,116.5C 1208.58,124.798 1202.41,129.631 1193.5,131C 1186.17,131.5 1178.84,131.666 1171.5,131.5C 1171.5,111.167 1171.5,90.8333 1171.5,70.5 Z"/></g>
<g><path style="opacity:0.99" fill="#000000" d="M 1336.5,-0.5 C 1373.83,-0.5 1411.17,-0.5 1448.5,-0.5C 1465.46,0.384615 1482.12,3.55128 1498.5,9C 1528.17,21.0127 1545.67,42.846 1551,74.5C 1562.69,169.313 1520.86,212.646 1425.5,204.5C 1425.5,235.167 1425.5,265.833 1425.5,296.5C 1395.83,296.5 1366.17,296.5 1336.5,296.5C 1336.5,197.5 1336.5,98.5 1336.5,-0.5 Z M 1425.5,68.5 C 1433.55,68.2773 1441.55,68.7773 1449.5,70C 1458.41,72.1116 1464.41,77.445 1467.5,86C 1471.55,97.8867 1471.38,109.72 1467,121.5C 1463.06,129.77 1456.56,134.604 1447.5,136C 1440.17,136.5 1432.84,136.666 1425.5,136.5C 1425.5,113.833 1425.5,91.1667 1425.5,68.5 Z"/></g>
<g><path style="opacity:0.986" fill="#000000" d="M 1534.5,-0.5 C 1568.5,-0.5 1602.5,-0.5 1636.5,-0.5C 1647.51,35.8675 1657.51,72.5342 1666.5,109.5C 1676.21,72.6529 1686.54,35.9862 1697.5,-0.5C 1731.5,-0.5 1765.5,-0.5 1799.5,-0.5C 1799.33,0.491622 1799.66,1.15829 1800.5,1.5C 1800.5,2.83333 1800.5,4.16667 1800.5,5.5C 1770.77,63.2831 1741.27,121.283 1712,179.5C 1711.5,218.499 1711.33,257.499 1711.5,296.5C 1681.83,296.5 1652.17,296.5 1622.5,296.5C 1622.67,257.832 1622.5,219.165 1622,180.5C 1592.04,121.411 1562.21,62.2444 1532.5,3C 1533.31,1.88732 1533.97,0.72065 1534.5,-0.5 Z"/></g>
<g><path style="opacity:0.439" fill="#e77c92" d="M -0.5,-0.5 C 52.8333,-0.5 106.167,-0.5 159.5,-0.5C 159.5,-0.166667 159.5,0.166667 159.5,0.5C 106.5,0.5 53.5,0.5 0.5,0.5C 0.5,147.5 0.5,294.5 0.5,441.5C 47.5,441.5 94.5,441.5 141.5,441.5C 141.5,441.833 141.5,442.167 141.5,442.5C 94.1667,442.5 46.8333,442.5 -0.5,442.5C -0.5,294.833 -0.5,147.167 -0.5,-0.5 Z"/></g>
<g><path style="opacity:1" fill="#d62246" d="M 159.5,0.5 C 165.184,7.08273 167.017,14.7494 165,23.5C 159.555,31.2779 157.221,39.9445 158,49.5C 156,46.8333 154,44.1667 152,41.5C 152.713,46.1078 153.547,50.7745 154.5,55.5C 153.98,57.472 152.813,57.472 151,55.5C 151.632,65.9395 155.465,75.1061 162.5,83C 159.161,81.8364 155.827,80.3364 152.5,78.5C 152.167,78.8333 151.833,79.1667 151.5,79.5C 156.013,86.5245 161.013,93.1911 166.5,99.5C 166.333,99.8333 166.167,100.167 166,100.5C 163.278,97.5564 160.111,95.2231 156.5,93.5C 156.167,94 155.833,94.5 155.5,95C 158.176,101.518 161.509,107.685 165.5,113.5C 163.259,113.498 160.926,113.832 158.5,114.5C 160.316,116.817 162.316,118.984 164.5,121C 161.528,119.385 158.195,118.552 154.5,118.5C 152.035,118.478 149.702,118.978 147.5,120C 143.325,123.845 143.992,126.845 149.5,129C 148.09,129.368 147.09,130.201 146.5,131.5C 147.5,133.167 148.833,134.5 150.5,135.5C 144.206,136.848 137.873,138.015 131.5,139C 129.913,139.862 128.246,140.529 126.5,141C 124.085,143.909 124.751,146.243 128.5,148C 140.522,153.672 153.188,156.505 166.5,156.5C 168.5,157.167 170.5,157.833 172.5,158.5C 164.793,161.186 157.46,164.686 150.5,169C 146.974,171.026 144.307,173.859 142.5,177.5C 144.149,179.995 146.483,181.495 149.5,182C 169.499,183.499 189.166,181.666 208.5,176.5C 209.696,176.846 209.696,177.346 208.5,178C 203.084,180.139 197.751,182.472 192.5,185C 190.077,186.571 188.744,188.737 188.5,191.5C 193.179,191.666 197.845,191.499 202.5,191C 214.288,186.355 226.121,181.855 238,177.5C 239.783,178.953 241.783,179.953 244,180.5C 248.772,179.365 253.272,177.532 257.5,175C 263.347,170.909 269.013,166.576 274.5,162C 280.664,156.678 284.998,150.178 287.5,142.5C 286.99,140.912 285.99,139.745 284.5,139C 302.378,136.458 313.212,126.291 317,108.5C 319.119,90.1405 311.285,78.8072 293.5,74.5C 294.397,78.1338 295.73,81.6338 297.5,85C 297.355,85.772 297.022,86.4387 296.5,87C 287.858,90.7177 278.858,92.3844 269.5,92C 267.383,90.2691 265.883,88.1024 265,85.5C 262.189,73.8942 265.022,64.0608 273.5,56C 281.979,51.9585 290.479,48.1252 299,44.5C 299.167,44.1667 299.333,43.8333 299.5,43.5C 298.167,43.1667 296.833,42.8333 295.5,42.5C 292.167,43.1667 288.833,43.8333 285.5,44.5C 283.611,44.5637 281.944,44.0637 280.5,43C 286.293,40.2696 291.96,37.2696 297.5,34C 300.237,32.3859 302.403,30.2192 304,27.5C 304.865,25.1122 304.032,23.6122 301.5,23C 302.399,20.8083 303.399,18.6416 304.5,16.5C 304.167,16.1667 303.833,15.8333 303.5,15.5C 300.439,17.8688 297.106,19.3688 293.5,20C 296.394,13.6865 298.727,7.18649 300.5,0.5C 347.5,0.5 394.5,0.5 441.5,0.5C 441.5,147.5 441.5,294.5 441.5,441.5C 388.5,441.5 335.5,441.5 282.5,441.5C 277.084,434.833 275.251,427.167 277,418.5C 282.361,410.736 284.694,402.069 284,392.5C 286,395.167 288,397.833 290,400.5C 289.823,395.776 288.99,391.109 287.5,386.5C 287.667,385.833 287.833,385.167 288,384.5C 290.296,387.388 291.462,386.888 291.5,383C 289.974,374.282 286.307,366.616 280.5,360C 283.249,360.945 286.083,362.111 289,363.5C 289.5,363.167 290,362.833 290.5,362.5C 285.987,355.476 280.987,348.809 275.5,342.5C 275.667,342.167 275.833,341.833 276,341.5C 278.659,345.236 282.159,347.569 286.5,348.5C 284.896,341.127 281.563,334.627 276.5,329C 278.833,328.667 281.167,328.333 283.5,328C 281.142,325.019 278.975,322.186 277,319.5C 283.095,325.433 289.595,325.933 296.5,321C 298.17,317.549 297.17,315.049 293.5,313.5C 295.04,312.468 295.54,311.135 295,309.5C 293.513,308.845 292.347,307.845 291.5,306.5C 299.754,305.626 307.754,303.793 315.5,301C 317.007,300.163 317.507,298.996 317,297.5C 311.907,293.204 306.074,290.371 299.5,289C 288.95,286.731 278.283,285.398 267.5,285C 279.202,280.738 289.702,274.571 299,266.5C 299.711,264.633 299.211,263.133 297.5,262C 276.317,258.381 255.317,259.548 234.5,265.5C 233.833,265.333 233.167,265.167 232.5,265C 238.287,262.606 243.954,259.94 249.5,257C 251.833,256 253.5,254.333 254.5,252C 248.5,251.333 242.5,251.333 236.5,252C 225.823,256.589 214.99,260.756 204,264.5C 202.217,263.047 200.217,262.047 198,261.5C 182.895,266.919 170.228,275.919 160,288.5C 157.699,291.788 155.866,295.288 154.5,299C 154.354,301.188 155.354,302.521 157.5,303C 141.247,304.915 130.747,313.748 126,329.5C 121.857,345.766 127.024,357.932 141.5,366C 143.74,366.977 146.073,367.477 148.5,367.5C 146.996,363.522 145.83,359.522 145,355.5C 151.098,353.54 157.265,351.707 163.5,350C 173.605,348.598 178.605,353.098 178.5,363.5C 178.707,376.282 173.041,385.115 161.5,390C 156.012,391.607 150.678,393.607 145.5,396C 144.313,397.019 143.313,398.186 142.5,399.5C 143,399.833 143.5,400.167 144,400.5C 166.051,396.26 166.885,398.427 146.5,407C 143,409.167 140.167,412 138,415.5C 137.768,417.283 138.268,418.95 139.5,420.5C 138.352,422.761 137.852,425.095 138,427.5C 141.484,424.62 145.317,422.787 149.5,422C 147.951,423.214 146.785,424.714 146,426.5C 145.13,431.804 143.63,436.804 141.5,441.5C 94.5,441.5 47.5,441.5 0.5,441.5C 0.5,294.5 0.5,147.5 0.5,0.5C 53.5,0.5 106.5,0.5 159.5,0.5 Z"/></g>
<g><path style="opacity:0.753" fill="#e46f86" d="M 300.5,0.5 C 300.5,0.166667 300.5,-0.166667 300.5,-0.5C 347.833,-0.5 395.167,-0.5 442.5,-0.5C 442.5,147.167 442.5,294.833 442.5,442.5C 389.167,442.5 335.833,442.5 282.5,442.5C 282.5,442.167 282.5,441.833 282.5,441.5C 335.5,441.5 388.5,441.5 441.5,441.5C 441.5,294.5 441.5,147.5 441.5,0.5C 394.5,0.5 347.5,0.5 300.5,0.5 Z"/></g>
<g><path style="opacity:1" fill="#ea90a1" d="M 166.5,156.5 C 169.518,156.335 172.518,156.502 175.5,157C 174.473,157.513 173.473,158.013 172.5,158.5C 170.5,157.833 168.5,157.167 166.5,156.5 Z"/></g>
<g><path style="opacity:0.997" fill="#fefefe" d="M 282.5,441.5 C 282.5,441.833 282.5,442.167 282.5,442.5C 235.5,442.5 188.5,442.5 141.5,442.5C 141.5,442.167 141.5,441.833 141.5,441.5C 143.63,436.804 145.13,431.804 146,426.5C 146.785,424.714 147.951,423.214 149.5,422C 145.317,422.787 141.484,424.62 138,427.5C 137.852,425.095 138.352,422.761 139.5,420.5C 138.268,418.95 137.768,417.283 138,415.5C 140.167,412 143,409.167 146.5,407C 166.885,398.427 166.051,396.26 144,400.5C 143.5,400.167 143,399.833 142.5,399.5C 143.313,398.186 144.313,397.019 145.5,396C 150.678,393.607 156.012,391.607 161.5,390C 173.041,385.115 178.707,376.282 178.5,363.5C 178.605,353.098 173.605,348.598 163.5,350C 157.265,351.707 151.098,353.54 145,355.5C 145.83,359.522 146.996,363.522 148.5,367.5C 146.073,367.477 143.74,366.977 141.5,366C 127.024,357.932 121.857,345.766 126,329.5C 130.747,313.748 141.247,304.915 157.5,303C 155.354,302.521 154.354,301.188 154.5,299C 155.866,295.288 157.699,291.788 160,288.5C 170.228,275.919 182.895,266.919 198,261.5C 200.217,262.047 202.217,263.047 204,264.5C 214.99,260.756 225.823,256.589 236.5,252C 242.5,251.333 248.5,251.333 254.5,252C 253.5,254.333 251.833,256 249.5,257C 243.954,259.94 238.287,262.606 232.5,265C 233.167,265.167 233.833,265.333 234.5,265.5C 255.317,259.548 276.317,258.381 297.5,262C 299.211,263.133 299.711,264.633 299,266.5C 289.702,274.571 279.202,280.738 267.5,285C 278.283,285.398 288.95,286.731 299.5,289C 306.074,290.371 311.907,293.204 317,297.5C 317.507,298.996 317.007,300.163 315.5,301C 307.754,303.793 299.754,305.626 291.5,306.5C 292.347,307.845 293.513,308.845 295,309.5C 295.54,311.135 295.04,312.468 293.5,313.5C 297.17,315.049 298.17,317.549 296.5,321C 289.595,325.933 283.095,325.433 277,319.5C 278.975,322.186 281.142,325.019 283.5,328C 281.167,328.333 278.833,328.667 276.5,329C 281.563,334.627 284.896,341.127 286.5,348.5C 282.159,347.569 278.659,345.236 276,341.5C 275.833,341.833 275.667,342.167 275.5,342.5C 280.987,348.809 285.987,355.476 290.5,362.5C 290,362.833 289.5,363.167 289,363.5C 286.083,362.111 283.249,360.945 280.5,360C 286.307,366.616 289.974,374.282 291.5,383C 291.462,386.888 290.296,387.388 288,384.5C 287.833,385.167 287.667,385.833 287.5,386.5C 288.99,391.109 289.823,395.776 290,400.5C 288,397.833 286,395.167 284,392.5C 284.694,402.069 282.361,410.736 277,418.5C 275.251,427.167 277.084,434.833 282.5,441.5 Z"/></g>
<g><path style="opacity:0.968" fill="#000000" d="M 590.5,444.5 C 583.167,444.5 575.833,444.5 568.5,444.5C 547.779,439.61 535.279,426.61 531,405.5C 526.706,384.863 530.372,365.863 542,348.5C 554.752,335.36 570.252,330.194 588.5,333C 595.422,333.974 601.922,336.141 608,339.5C 606.98,349.814 605.813,360.147 604.5,370.5C 599.547,367.428 594.213,364.928 588.5,363C 576.117,361.275 568.283,366.441 565,378.5C 562.532,388.691 563.865,398.358 569,407.5C 575.879,414.545 584.046,416.378 593.5,413C 596.677,411.15 599.843,409.317 603,407.5C 603.772,407.645 604.439,407.978 605,408.5C 606.67,418.175 608.003,427.841 609,437.5C 602.996,440.553 596.83,442.886 590.5,444.5 Z"/></g>
<g><path style="opacity:0.974" fill="#000000" d="M 621.5,334.5 C 638.53,334.163 655.53,334.663 672.5,336C 693.752,341.631 702.585,355.465 699,377.5C 697.794,386.922 693.294,394.256 685.5,399.5C 692.92,412.004 700.086,424.671 707,437.5C 707.494,439.134 707.66,440.801 707.5,442.5C 696.147,442.832 684.814,442.499 673.5,441.5C 667.167,429.5 660.833,417.5 654.5,405.5C 653.501,417.815 653.168,430.149 653.5,442.5C 642.833,442.5 632.167,442.5 621.5,442.5C 621.5,406.5 621.5,370.5 621.5,334.5 Z M 654.5,361.5 C 665.846,360.148 670.346,365.148 668,376.5C 664.948,381.472 660.448,383.472 654.5,382.5C 654.5,375.5 654.5,368.5 654.5,361.5 Z"/></g>
<g><path style="opacity:0.959" fill="#000000" d="M 712.5,334.5 C 733.169,334.333 753.836,334.5 774.5,335C 776.117,344.056 777.117,353.223 777.5,362.5C 766.833,362.5 756.167,362.5 745.5,362.5C 745.5,367.167 745.5,371.833 745.5,376.5C 754.833,376.5 764.167,376.5 773.5,376.5C 773.5,384.167 773.5,391.833 773.5,399.5C 764.167,399.5 754.833,399.5 745.5,399.5C 745.5,404.5 745.5,409.5 745.5,414.5C 756.167,414.5 766.833,414.5 777.5,414.5C 776.76,423.828 776.093,433.161 775.5,442.5C 754.5,442.5 733.5,442.5 712.5,442.5C 712.5,406.5 712.5,370.5 712.5,334.5 Z"/></g>
<g><path style="opacity:0.967" fill="#000000" d="M 811.5,334.5 C 824.85,334.167 838.183,334.501 851.5,335.5C 861.952,370.976 871.619,406.643 880.5,442.5C 868.5,442.5 856.5,442.5 844.5,442.5C 844.014,437.07 843.014,431.737 841.5,426.5C 834.197,425.503 826.863,425.169 819.5,425.5C 819.089,431.136 818.089,436.636 816.5,442C 804.344,442.976 792.344,442.643 780.5,441C 790.757,405.471 801.09,369.971 811.5,334.5 Z M 830.5,365.5 C 832.227,377.681 834.56,389.847 837.5,402C 833.129,402.828 828.795,402.661 824.5,401.5C 827.337,389.644 829.337,377.644 830.5,365.5 Z"/></g>
<g><path style="opacity:0.976" fill="#000000" d="M 870.5,334.5 C 897.167,334.5 923.833,334.5 950.5,334.5C 950.5,344.5 950.5,354.5 950.5,364.5C 942.5,364.5 934.5,364.5 926.5,364.5C 926.5,390.5 926.5,416.5 926.5,442.5C 915.833,442.5 905.167,442.5 894.5,442.5C 894.5,416.5 894.5,390.5 894.5,364.5C 886.5,364.5 878.5,364.5 870.5,364.5C 870.5,354.5 870.5,344.5 870.5,334.5 Z"/></g>
<g><path style="opacity:0.951" fill="#000000" d="M 957.5,334.5 C 968.5,334.5 979.5,334.5 990.5,334.5C 990.5,370.5 990.5,406.5 990.5,442.5C 979.5,442.5 968.5,442.5 957.5,442.5C 957.5,406.5 957.5,370.5 957.5,334.5 Z"/></g>
<g><path style="opacity:0.965" fill="#000000" d="M 997.5,334.5 C 1009.83,334.5 1022.17,334.5 1034.5,334.5C 1038.88,358.583 1043.72,382.583 1049,406.5C 1053.31,382.453 1057.81,358.453 1062.5,334.5C 1074.83,334.5 1087.17,334.5 1099.5,334.5C 1090.26,370.055 1080.09,405.388 1069,440.5C 1062.4,441.813 1055.57,442.48 1048.5,442.5C 1041.59,442.491 1034.76,442.158 1028,441.5C 1017.65,406.448 1007.15,371.448 996.5,336.5C 996.863,335.817 997.196,335.15 997.5,334.5 Z"/></g>
<g><path style="opacity:0.969" fill="#000000" d="M 1106.5,334.5 C 1127.17,334.5 1147.83,334.5 1168.5,334.5C 1169.65,343.81 1170.65,353.143 1171.5,362.5C 1160.5,362.5 1149.5,362.5 1138.5,362.5C 1138.5,367.167 1138.5,371.833 1138.5,376.5C 1147.83,376.5 1157.17,376.5 1166.5,376.5C 1166.5,384.167 1166.5,391.833 1166.5,399.5C 1157.17,399.5 1147.83,399.5 1138.5,399.5C 1138.5,404.5 1138.5,409.5 1138.5,414.5C 1149.5,414.5 1160.5,414.5 1171.5,414.5C 1170.79,423.872 1169.79,433.206 1168.5,442.5C 1147.83,442.5 1127.17,442.5 1106.5,442.5C 1106.5,406.5 1106.5,370.5 1106.5,334.5 Z"/></g>
</svg>
