<?xml version="1.0" encoding="UTF-8"?>
<!DOCTYPE svg PUBLIC "-//W3C//DTD SVG 1.1//EN" "http://www.w3.org/Graphics/SVG/1.1/DTD/svg11.dtd">
<svg xmlns="http://www.w3.org/2000/svg" version="1.1" width="1655px" height="296px" style="shape-rendering:geometricPrecision; text-rendering:geometricPrecision; image-rendering:optimizeQuality; fill-rule:evenodd; clip-rule:evenodd" xmlns:xlink="http://www.w3.org/1999/xlink">
<g><path style="opacity:1" fill="#d62446" d="M -0.5,-0.5 C 35.5,-0.5 71.5,-0.5 107.5,-0.5C 112.983,6.96659 112.816,14.2999 107,21.5C 106.667,25.1667 106.333,28.8333 106,32.5C 104.426,31.0158 103.093,29.3492 102,27.5C 102.233,30.2901 102.733,33.1234 103.5,36C 103.501,39.0433 102.668,39.21 101,36.5C 101.444,42.7384 103.611,48.4051 107.5,53.5C 105.704,53.7315 103.871,53.0648 102,51.5C 101.833,51.8333 101.667,52.1667 101.5,52.5C 103.922,56.3438 106.589,60.0105 109.5,63.5C 109.333,63.8333 109.167,64.1667 109,64.5C 107.373,62.688 105.873,62.5213 104.5,64C 106.082,67.9098 108.082,71.5765 110.5,75C 106.517,75.23 105.851,76.5634 108.5,79C 104.244,77.7384 100.411,78.5718 97,81.5C 96.3333,82.1667 96.3333,82.8333 97,83.5C 100.248,84.4419 100.748,85.7752 98.5,87.5C 98.9767,88.4776 99.6433,89.3109 100.5,90C 96.8136,90.5588 93.147,91.2255 89.5,92C 87.0031,92.4117 85.0031,93.5784 83.5,95.5C 86.7287,98.9501 90.7287,101.117 95.5,102C 102.426,103.519 109.426,104.519 116.5,105C 108.971,107.679 102.137,111.512 96,116.5C 95.3162,117.784 95.4829,118.951 96.5,120C 110.817,122.211 124.984,121.378 139,117.5C 139.5,117.667 140,117.833 140.5,118C 134.997,119.579 130.33,122.413 126.5,126.5C 129.784,127.657 133.118,127.824 136.5,127C 143.167,124.333 149.833,121.667 156.5,119C 159.076,118.394 161.41,118.894 163.5,120.5C 175.084,115.744 184.418,108.244 191.5,98C 192.649,96.2703 192.649,94.6037 191.5,93C 204.587,89.847 211.587,81.5137 212.5,68C 212.176,58.3386 207.343,52.1719 198,49.5C 197.5,49.8333 197,50.1667 196.5,50.5C 197.5,52.5 198.5,54.5 199.5,56.5C 193.996,58.627 188.33,60.2937 182.5,61.5C 178.441,60.2124 176.441,57.3791 176.5,53C 176.328,46.7852 178.328,41.4518 182.5,37C 188.698,34.4418 194.698,31.6084 200.5,28.5C 196.567,28.1699 192.567,28.0033 188.5,28C 193.761,25.4551 198.594,22.2884 203,18.5C 201.887,15.431 202.387,12.5976 204.5,10C 201.5,11 198.5,12 195.5,13C 198.453,9.05139 200.12,4.55139 200.5,-0.5C 232.5,-0.5 264.5,-0.5 296.5,-0.5C 296.5,98.1667 296.5,196.833 296.5,295.5C 260.5,295.5 224.5,295.5 188.5,295.5C 183.067,288.003 183.234,280.67 189,273.5C 189.333,269.5 189.667,265.5 190,261.5C 194.906,269.285 195.739,268.451 192.5,259C 192.318,256.696 192.984,256.196 194.5,257.5C 194.924,251.968 193.257,246.968 189.5,242.5C 191.021,242.12 192.687,241.954 194.5,242C 192.28,239.287 190.28,236.454 188.5,233.5C 188.5,232.833 188.833,232.5 189.5,232.5C 190.497,232.53 191.164,232.03 191.5,231C 190.015,227.029 188.015,223.362 185.5,220C 186.938,219.781 188.271,219.281 189.5,218.5C 187.877,216.887 186.71,215.22 186,213.5C 190.876,217.713 195.376,217.379 199.5,212.5C 197.12,210.316 195.786,207.816 195.5,205C 198.789,204.118 202.123,203.452 205.5,203C 208.112,202.361 210.446,201.194 212.5,199.5C 210.393,196.939 207.726,195.106 204.5,194C 196.296,191.932 187.963,190.599 179.5,190C 186.276,187.446 192.609,184.113 198.5,180C 200.527,178.604 200.86,176.938 199.5,175C 186.122,172.835 172.789,173.335 159.5,176.5C 158.833,176.333 158.167,176.167 157.5,176C 162.313,174.688 166.313,172.188 169.5,168.5C 165.878,167.341 162.211,167.175 158.5,168C 151.389,170.972 144.223,173.805 137,176.5C 134.775,174.722 132.275,174.222 129.5,175C 119.054,180.305 110.554,187.805 104,197.5C 103.28,199.112 103.446,200.612 104.5,202C 93.4477,204.052 86.6144,210.552 84,221.5C 82.0104,232.691 86.1771,240.524 96.5,245C 97.635,245.749 98.635,245.583 99.5,244.5C 98.5,242.5 97.5,240.5 96.5,238.5C 96.7093,237.914 97.0426,237.414 97.5,237C 118.674,229.51 124.507,236.01 115,256.5C 108.399,259.748 101.899,263.081 95.5,266.5C 99.4341,266.2 103.434,266.2 107.5,266.5C 102.477,269.439 97.6435,272.772 93,276.5C 94.1133,279.569 93.6133,282.402 91.5,285C 94.0514,284.313 96.5514,283.146 99,281.5C 97.242,285.865 96.0754,290.531 95.5,295.5C 63.5,295.5 31.5,295.5 -0.5,295.5C -0.5,196.833 -0.5,98.1667 -0.5,-0.5 Z"/></g>
<g><path style="opacity:1" fill="#fefdfd" d="M 107.5,-0.5 C 138.5,-0.5 169.5,-0.5 200.5,-0.5C 200.12,4.55139 198.453,9.05139 195.5,13C 198.5,12 201.5,11 204.5,10C 202.387,12.5976 201.887,15.431 203,18.5C 198.594,22.2884 193.761,25.4551 188.5,28C 192.567,28.0033 196.567,28.1699 200.5,28.5C 194.698,31.6084 188.698,34.4418 182.5,37C 178.328,41.4518 176.328,46.7852 176.5,53C 176.441,57.3791 178.441,60.2124 182.5,61.5C 188.33,60.2937 193.996,58.627 199.5,56.5C 198.5,54.5 197.5,52.5 196.5,50.5C 197,50.1667 197.5,49.8333 198,49.5C 207.343,52.1719 212.176,58.3386 212.5,68C 211.587,81.5137 204.587,89.847 191.5,93C 192.649,94.6037 192.649,96.2703 191.5,98C 184.418,108.244 175.084,115.744 163.5,120.5C 161.41,118.894 159.076,118.394 156.5,119C 149.833,121.667 143.167,124.333 136.5,127C 133.118,127.824 129.784,127.657 126.5,126.5C 130.33,122.413 134.997,119.579 140.5,118C 140,117.833 139.5,117.667 139,117.5C 124.984,121.378 110.817,122.211 96.5,120C 95.4829,118.951 95.3162,117.784 96,116.5C 102.137,111.512 108.971,107.679 116.5,105C 109.426,104.519 102.426,103.519 95.5,102C 90.7287,101.117 86.7287,98.9501 83.5,95.5C 85.0031,93.5784 87.0031,92.4117 89.5,92C 93.147,91.2255 96.8136,90.5588 100.5,90C 99.6433,89.3109 98.9767,88.4776 98.5,87.5C 100.748,85.7752 100.248,84.4419 97,83.5C 96.3333,82.8333 96.3333,82.1667 97,81.5C 100.411,78.5718 104.244,77.7384 108.5,79C 105.851,76.5634 106.517,75.23 110.5,75C 108.082,71.5765 106.082,67.9098 104.5,64C 105.873,62.5213 107.373,62.688 109,64.5C 109.167,64.1667 109.333,63.8333 109.5,63.5C 106.589,60.0105 103.922,56.3438 101.5,52.5C 101.667,52.1667 101.833,51.8333 102,51.5C 103.871,53.0648 105.704,53.7315 107.5,53.5C 103.611,48.4051 101.444,42.7384 101,36.5C 102.668,39.21 103.501,39.0433 103.5,36C 102.733,33.1234 102.233,30.2901 102,27.5C 103.093,29.3492 104.426,31.0158 106,32.5C 106.333,28.8333 106.667,25.1667 107,21.5C 112.816,14.2999 112.983,6.96659 107.5,-0.5 Z"/></g>
<g><path style="opacity:0.995" fill="#000000" d="M 383.5,-0.5 C 413.167,-0.5 442.833,-0.5 472.5,-0.5C 472.5,35.8333 472.5,72.1667 472.5,108.5C 493.5,108.5 514.5,108.5 535.5,108.5C 535.5,72.1667 535.5,35.8333 535.5,-0.5C 565.167,-0.5 594.833,-0.5 624.5,-0.5C 624.5,98.1667 624.5,196.833 624.5,295.5C 594.833,295.5 565.167,295.5 535.5,295.5C 535.5,258.5 535.5,221.5 535.5,184.5C 514.5,184.5 493.5,184.5 472.5,184.5C 472.5,221.5 472.5,258.5 472.5,295.5C 442.833,295.5 413.167,295.5 383.5,295.5C 383.5,196.833 383.5,98.1667 383.5,-0.5 Z"/></g>
<g><path style="opacity:0.994" fill="#000000" d="M 726.5,-0.5 C 763.5,-0.5 800.5,-0.5 837.5,-0.5C 864.029,97.2793 891.029,194.946 918.5,292.5C 917.873,293.417 917.539,294.417 917.5,295.5C 885.167,295.5 852.833,295.5 820.5,295.5C 816.992,280.294 813.992,264.961 811.5,249.5C 790.831,249.333 770.164,249.5 749.5,250C 746.185,265.078 743.185,280.244 740.5,295.5C 708.167,295.5 675.833,295.5 643.5,295.5C 642.476,292.527 642.643,289.527 644,286.5C 671.352,190.754 698.852,95.087 726.5,-0.5 Z M 779.5,72.5 C 784.623,110.904 790.956,149.237 798.5,187.5C 786.149,187.832 773.815,187.499 761.5,186.5C 769.665,148.844 775.665,110.844 779.5,72.5 Z"/></g>
<g><path style="opacity:0.994" fill="#000000" d="M 936.5,-0.5 C 978.5,-0.5 1020.5,-0.5 1062.5,-0.5C 1121.99,4.98879 1151.99,37.6555 1152.5,97.5C 1153.65,131.297 1140.32,157.464 1112.5,176C 1133.21,212.581 1154.04,249.081 1175,285.5C 1175.46,288.962 1174.96,292.296 1173.5,295.5C 1143.5,295.5 1113.5,295.5 1083.5,295.5C 1066.23,261.79 1048.56,228.29 1030.5,195C 1028.87,194.506 1027.2,194.34 1025.5,194.5C 1025.5,228.167 1025.5,261.833 1025.5,295.5C 995.833,295.5 966.167,295.5 936.5,295.5C 936.5,196.833 936.5,98.1667 936.5,-0.5 Z M 1026.5,69.5 C 1061.52,66.6961 1074.69,82.3628 1066,116.5C 1062.5,123.993 1056.67,128.493 1048.5,130C 1041.17,130.5 1033.84,130.666 1026.5,130.5C 1026.5,110.167 1026.5,89.8333 1026.5,69.5 Z"/></g>
<g><path style="opacity:0.993" fill="#000000" d="M 1190.5,-0.5 C 1232.17,-0.5 1273.83,-0.5 1315.5,-0.5C 1377.05,6.05614 1407.71,40.3895 1407.5,102.5C 1408.21,126.326 1402.38,148.326 1390,168.5C 1375.14,187.519 1355.64,198.685 1331.5,202C 1314.2,203.378 1296.87,203.878 1279.5,203.5C 1279.5,234.167 1279.5,264.833 1279.5,295.5C 1249.83,295.5 1220.17,295.5 1190.5,295.5C 1190.5,196.833 1190.5,98.1667 1190.5,-0.5 Z M 1279.5,68.5 C 1287.17,68.3336 1294.84,68.5003 1302.5,69C 1311.03,70.8708 1317.2,75.7041 1321,83.5C 1325.6,95.8485 1325.6,108.182 1321,120.5C 1317.09,128.737 1310.59,133.571 1301.5,135C 1294.17,135.5 1286.84,135.666 1279.5,135.5C 1279.5,113.167 1279.5,90.8333 1279.5,68.5 Z"/></g>
<g><path style="opacity:0.994" fill="#000000" d="M 1387.5,-0.5 C 1422.17,-0.5 1456.83,-0.5 1491.5,-0.5C 1501.77,35.6542 1511.44,71.9875 1520.5,108.5C 1530.23,71.9692 1540.57,35.6359 1551.5,-0.5C 1585.5,-0.5 1619.5,-0.5 1653.5,-0.5C 1653.5,0.166667 1653.83,0.5 1654.5,0.5C 1654.5,1.83333 1654.5,3.16667 1654.5,4.5C 1624.52,62.4612 1595.02,120.795 1566,179.5C 1565.5,218.165 1565.33,256.832 1565.5,295.5C 1535.83,295.5 1506.17,295.5 1476.5,295.5C 1476.67,256.832 1476.5,218.165 1476,179.5C 1446.41,121.322 1417.08,62.9886 1388,4.5C 1387.51,2.86586 1387.34,1.19919 1387.5,-0.5 Z"/></g>
<g><path style="opacity:1" fill="#fefdfd" d="M 189.5,232.5 C 188.438,230.243 186.772,229.077 184.5,229C 185.328,230.992 186.661,232.492 188.5,233.5C 190.28,236.454 192.28,239.287 194.5,242C 192.687,241.954 191.021,242.12 189.5,242.5C 193.257,246.968 194.924,251.968 194.5,257.5C 192.984,256.196 192.318,256.696 192.5,259C 195.739,268.451 194.906,269.285 190,261.5C 189.667,265.5 189.333,269.5 189,273.5C 183.234,280.67 183.067,288.003 188.5,295.5C 157.5,295.5 126.5,295.5 95.5,295.5C 96.0754,290.531 97.242,285.865 99,281.5C 96.5514,283.146 94.0514,284.313 91.5,285C 93.6133,282.402 94.1133,279.569 93,276.5C 97.6435,272.772 102.477,269.439 107.5,266.5C 103.434,266.2 99.4341,266.2 95.5,266.5C 101.899,263.081 108.399,259.748 115,256.5C 124.507,236.01 118.674,229.51 97.5,237C 97.0426,237.414 96.7093,237.914 96.5,238.5C 97.5,240.5 98.5,242.5 99.5,244.5C 98.635,245.583 97.635,245.749 96.5,245C 86.1771,240.524 82.0104,232.691 84,221.5C 86.6144,210.552 93.4477,204.052 104.5,202C 103.446,200.612 103.28,199.112 104,197.5C 110.554,187.805 119.054,180.305 129.5,175C 132.275,174.222 134.775,174.722 137,176.5C 144.223,173.805 151.389,170.972 158.5,168C 162.211,167.175 165.878,167.341 169.5,168.5C 166.313,172.188 162.313,174.688 157.5,176C 158.167,176.167 158.833,176.333 159.5,176.5C 172.789,173.335 186.122,172.835 199.5,175C 200.86,176.938 200.527,178.604 198.5,180C 192.609,184.113 186.276,187.446 179.5,190C 187.963,190.599 196.296,191.932 204.5,194C 207.726,195.106 210.393,196.939 212.5,199.5C 210.446,201.194 208.112,202.361 205.5,203C 202.123,203.452 198.789,204.118 195.5,205C 195.786,207.816 197.12,210.316 199.5,212.5C 195.376,217.379 190.876,217.713 186,213.5C 186.71,215.22 187.877,216.887 189.5,218.5C 188.271,219.281 186.938,219.781 185.5,220C 188.015,223.362 190.015,227.029 191.5,231C 191.164,232.03 190.497,232.53 189.5,232.5 Z"/></g>
<g><path style="opacity:1" fill="#e87888" d="M 189.5,232.5 C 188.833,232.5 188.5,232.833 188.5,233.5C 186.661,232.492 185.328,230.992 184.5,229C 186.772,229.077 188.438,230.243 189.5,232.5 Z"/></g>
</svg>
