<?xml version="1.0" encoding="UTF-8"?>
<!DOCTYPE svg PUBLIC "-//W3C//DTD SVG 1.1//EN" "http://www.w3.org/Graphics/SVG/1.1/DTD/svg11.dtd">
<svg xmlns="http://www.w3.org/2000/svg" version="1.1" width="441px" height="631px" style="shape-rendering:geometricPrecision; text-rendering:geometricPrecision; image-rendering:optimizeQuality; fill-rule:evenodd; clip-rule:evenodd" xmlns:xlink="http://www.w3.org/1999/xlink">
<g><path style="opacity:0.999" fill="#fefefe" d="M 159.5,-0.5 C 206.167,-0.5 252.833,-0.5 299.5,-0.5C 299.5,-0.166667 299.5,0.166667 299.5,0.5C 297.405,4.84633 295.905,9.51299 295,14.5C 294.208,16.5873 293.041,18.4207 291.5,20C 295.608,19.2795 299.275,17.4461 302.5,14.5C 302.833,14.8333 303.167,15.1667 303.5,15.5C 302.544,17.0754 301.877,18.742 301.5,20.5C 300.115,21.9473 300.448,22.9473 302.5,23.5C 303.069,26.2641 302.069,28.7641 299.5,31C 292.997,35.0861 286.33,38.9194 279.5,42.5C 280.833,42.8333 282.167,43.1667 283.5,43.5C 287.347,42.9134 291.18,42.2467 295,41.5C 296.167,41.8333 297.333,42.1667 298.5,42.5C 298.333,42.8333 298.167,43.1667 298,43.5C 289.11,47.4675 280.277,51.6342 271.5,56C 268.117,59.2692 265.617,63.1026 264,67.5C 263.333,73.5 263.333,79.5 264,85.5C 265.739,88.9067 268.406,91.24 272,92.5C 280.124,90.2605 288.291,88.2605 296.5,86.5C 295.636,82.3181 294.303,78.3181 292.5,74.5C 307.304,77.1389 315.304,85.9723 316.5,101C 315.299,121.694 304.632,134.194 284.5,138.5C 285.383,139.548 286.05,140.715 286.5,142C 285.666,145.5 284.166,148.667 282,151.5C 271.961,162.941 260.128,172.108 246.5,179C 244.5,179.667 242.5,179.667 240.5,179C 239.541,177.536 238.208,176.703 236.5,176.5C 225.727,180.386 215.06,184.553 204.5,189C 198.804,189.83 193.137,189.663 187.5,188.5C 188.648,186.851 189.981,185.351 191.5,184C 196.599,181.117 201.933,178.783 207.5,177C 208.696,176.346 208.696,175.846 207.5,175.5C 189.115,180.126 170.448,181.959 151.5,181C 148.429,180.853 145.596,180.02 143,178.5C 142.245,175.503 143.078,173.003 145.5,171C 153.749,165.709 162.415,161.209 171.5,157.5C 172.473,157.013 173.473,156.513 174.5,156C 170.514,155.501 166.514,155.334 162.5,155.5C 150.414,154.395 138.747,151.562 127.5,147C 124.141,144.966 123.808,142.632 126.5,140C 134.211,137.103 142.211,135.437 150.5,135C 149.271,133.471 147.771,132.304 146,131.5C 145.552,129.591 146.385,128.424 148.5,128C 142.992,125.845 142.325,122.845 146.5,119C 152.886,116.412 158.72,117.245 164,121.5C 162.025,118.814 159.858,115.981 157.5,113C 160.2,112.747 162.867,112.747 165.5,113C 160.058,106.954 156.724,100.121 155.5,92.5C 159.111,94.2231 162.278,96.5564 165,99.5C 165.167,99.1667 165.333,98.8333 165.5,98.5C 160.423,92.9243 155.923,86.9243 152,80.5C 151.333,79.5 151.333,78.5 152,77.5C 155.114,79.4777 158.281,80.9777 161.5,82C 154.579,74.3476 150.912,65.5143 150.5,55.5C 151.5,56.1667 152.5,56.8333 153.5,57.5C 153.833,57.1667 154.167,56.8333 154.5,56.5C 152.903,51.9172 152.07,47.2505 152,42.5C 154.237,44.6471 156.237,46.9804 158,49.5C 156.803,39.1587 159.136,29.8253 165,21.5C 166.325,13.6455 164.491,6.64552 159.5,0.5C 159.5,0.166667 159.5,-0.166667 159.5,-0.5 Z"/></g>
<g><path style="opacity:0.753" fill="#e3667f" d="M -0.5,-0.5 C 52.8333,-0.5 106.167,-0.5 159.5,-0.5C 159.5,-0.166667 159.5,0.166667 159.5,0.5C 106.5,0.5 53.5,0.5 0.5,0.5C 0.5,146.833 0.5,293.167 0.5,439.5C 47.5,439.5 94.5,439.5 141.5,439.5C 141.5,439.833 141.5,440.167 141.5,440.5C 94.1667,440.5 46.8333,440.5 -0.5,440.5C -0.5,293.5 -0.5,146.5 -0.5,-0.5 Z"/></g>
<g><path style="opacity:1" fill="#d62246" d="M 159.5,0.5 C 164.491,6.64552 166.325,13.6455 165,21.5C 159.136,29.8253 156.803,39.1587 158,49.5C 156.237,46.9804 154.237,44.6471 152,42.5C 152.07,47.2505 152.903,51.9172 154.5,56.5C 154.167,56.8333 153.833,57.1667 153.5,57.5C 152.5,56.8333 151.5,56.1667 150.5,55.5C 150.912,65.5143 154.579,74.3476 161.5,82C 158.281,80.9777 155.114,79.4777 152,77.5C 151.333,78.5 151.333,79.5 152,80.5C 155.923,86.9243 160.423,92.9243 165.5,98.5C 165.333,98.8333 165.167,99.1667 165,99.5C 162.278,96.5564 159.111,94.2231 155.5,92.5C 156.724,100.121 160.058,106.954 165.5,113C 162.867,112.747 160.2,112.747 157.5,113C 159.858,115.981 162.025,118.814 164,121.5C 158.72,117.245 152.886,116.412 146.5,119C 142.325,122.845 142.992,125.845 148.5,128C 146.385,128.424 145.552,129.591 146,131.5C 147.771,132.304 149.271,133.471 150.5,135C 142.211,135.437 134.211,137.103 126.5,140C 123.808,142.632 124.141,144.966 127.5,147C 138.747,151.562 150.414,154.395 162.5,155.5C 165.5,156.167 168.5,156.833 171.5,157.5C 162.415,161.209 153.749,165.709 145.5,171C 143.078,173.003 142.245,175.503 143,178.5C 145.596,180.02 148.429,180.853 151.5,181C 170.448,181.959 189.115,180.126 207.5,175.5C 208.696,175.846 208.696,176.346 207.5,177C 201.933,178.783 196.599,181.117 191.5,184C 189.981,185.351 188.648,186.851 187.5,188.5C 193.137,189.663 198.804,189.83 204.5,189C 215.06,184.553 225.727,180.386 236.5,176.5C 238.208,176.703 239.541,177.536 240.5,179C 242.5,179.667 244.5,179.667 246.5,179C 260.128,172.108 271.961,162.941 282,151.5C 284.166,148.667 285.666,145.5 286.5,142C 286.05,140.715 285.383,139.548 284.5,138.5C 304.632,134.194 315.299,121.694 316.5,101C 315.304,85.9723 307.304,77.1389 292.5,74.5C 294.303,78.3181 295.636,82.3181 296.5,86.5C 288.291,88.2605 280.124,90.2605 272,92.5C 268.406,91.24 265.739,88.9067 264,85.5C 263.333,79.5 263.333,73.5 264,67.5C 265.617,63.1026 268.117,59.2692 271.5,56C 280.277,51.6342 289.11,47.4675 298,43.5C 298.167,43.1667 298.333,42.8333 298.5,42.5C 297.333,42.1667 296.167,41.8333 295,41.5C 291.18,42.2467 287.347,42.9134 283.5,43.5C 282.167,43.1667 280.833,42.8333 279.5,42.5C 286.33,38.9194 292.997,35.0861 299.5,31C 302.069,28.7641 303.069,26.2641 302.5,23.5C 301.89,22.609 301.557,21.609 301.5,20.5C 301.877,18.742 302.544,17.0754 303.5,15.5C 303.167,15.1667 302.833,14.8333 302.5,14.5C 299.275,17.4461 295.608,19.2795 291.5,20C 293.041,18.4207 294.208,16.5873 295,14.5C 295.905,9.51299 297.405,4.84633 299.5,0.5C 346.167,0.5 392.833,0.5 439.5,0.5C 439.5,146.833 439.5,293.167 439.5,439.5C 386.5,439.5 333.5,439.5 280.5,439.5C 275.892,432.488 274.392,424.822 276,416.5C 279.299,412.441 281.132,407.775 281.5,402.5C 282.167,398.833 282.833,395.167 283.5,391.5C 285.57,393.964 287.404,396.631 289,399.5C 288.44,394.692 287.607,389.859 286.5,385C 286.667,384.167 286.833,383.333 287,382.5C 289.119,385.477 290.286,385.144 290.5,381.5C 288.705,372.91 285.038,365.244 279.5,358.5C 279.667,358.167 279.833,357.833 280,357.5C 282.397,359.782 285.231,361.116 288.5,361.5C 288.649,360.448 288.483,359.448 288,358.5C 285.002,354.008 281.835,349.675 278.5,345.5C 278.5,344.833 278.833,344.5 279.5,344.5C 281.305,345.237 282.971,346.237 284.5,347.5C 283.773,340.028 280.773,333.361 275.5,327.5C 277.741,327.502 280.074,327.168 282.5,326.5C 280.35,323.849 278.017,321.349 275.5,319C 278.777,320.554 282.277,321.721 286,322.5C 290.612,322.612 294.112,320.779 296.5,317C 295.513,314.679 293.846,313.013 291.5,312C 292.5,311.167 293.5,310.333 294.5,309.5C 293.352,307.851 292.019,306.351 290.5,305C 298.347,304.063 306.014,302.396 313.5,300C 316.321,297.283 315.987,294.95 312.5,293C 301.023,287.964 289.023,285.131 276.5,284.5C 273.833,283.833 271.167,283.167 268.5,282.5C 278.831,278.586 288.331,273.253 297,266.5C 297.982,265.241 298.315,263.908 298,262.5C 295.656,260.226 292.822,259.059 289.5,259C 270.14,257.403 251.14,259.236 232.5,264.5C 231.304,264.154 231.304,263.654 232.5,263C 237.167,261 241.833,259 246.5,257C 248.996,255.669 250.996,253.836 252.5,251.5C 253.043,251.44 253.376,251.107 253.5,250.5C 248.014,249.185 242.68,249.185 237.5,250.5C 226.074,254.921 214.574,259.255 203,263.5C 201.687,261.198 199.687,260.198 197,260.5C 187.739,263.047 179.572,267.547 172.5,274C 167.667,278.833 162.833,283.667 158,288.5C 156.041,291.456 154.541,294.623 153.5,298C 154.101,299.605 155.101,300.938 156.5,302C 139.849,303.977 129.349,313.144 125,329.5C 121.518,346.108 127.351,357.942 142.5,365C 144.134,365.494 145.801,365.66 147.5,365.5C 146.812,362.282 145.812,359.116 144.5,356C 144.585,354.893 144.919,353.893 145.5,353C 153.65,350.21 161.984,348.544 170.5,348C 174.165,349.668 176.332,352.501 177,356.5C 177.857,364.548 176.524,372.215 173,379.5C 171.5,381 170,382.5 168.5,384C 161.431,387.58 154.097,390.58 146.5,393C 144.415,394.041 142.748,395.541 141.5,397.5C 142.5,397.833 143.5,398.167 144.5,398.5C 149.775,396.69 155.108,396.357 160.5,397.5C 153.67,401.081 147.003,404.914 140.5,409C 138.46,411.185 137.126,413.685 136.5,416.5C 137.5,416.5 138.5,416.5 139.5,416.5C 139.076,419.354 138.076,422.021 136.5,424.5C 136.833,424.833 137.167,425.167 137.5,425.5C 140.725,422.554 144.392,420.721 148.5,420C 144.614,425.903 142.281,432.403 141.5,439.5C 94.5,439.5 47.5,439.5 0.5,439.5C 0.5,293.167 0.5,146.833 0.5,0.5C 53.5,0.5 106.5,0.5 159.5,0.5 Z"/></g>
<g><path style="opacity:0.937" fill="#df536e" d="M 299.5,0.5 C 299.5,0.166667 299.5,-0.166667 299.5,-0.5C 346.5,-0.5 393.5,-0.5 440.5,-0.5C 440.5,146.5 440.5,293.5 440.5,440.5C 387.167,440.5 333.833,440.5 280.5,440.5C 280.5,440.167 280.5,439.833 280.5,439.5C 333.5,439.5 386.5,439.5 439.5,439.5C 439.5,293.167 439.5,146.833 439.5,0.5C 392.833,0.5 346.167,0.5 299.5,0.5 Z"/></g>
<g><path style="opacity:1" fill="#ec93a4" d="M 301.5,20.5 C 301.557,21.609 301.89,22.609 302.5,23.5C 300.448,22.9473 300.115,21.9473 301.5,20.5 Z"/></g>
<g><path style="opacity:1" fill="#e77e93" d="M 162.5,155.5 C 166.514,155.334 170.514,155.501 174.5,156C 173.473,156.513 172.473,157.013 171.5,157.5C 168.5,156.833 165.5,156.167 162.5,155.5 Z"/></g>
<g><path style="opacity:1" fill="#f2b8c3" d="M 237.5,250.5 C 242.68,249.185 248.014,249.185 253.5,250.5C 253.376,251.107 253.043,251.44 252.5,251.5C 247.695,250.513 242.695,250.179 237.5,250.5 Z"/></g>
<g><path style="opacity:0.997" fill="#fefefe" d="M 237.5,250.5 C 242.695,250.179 247.695,250.513 252.5,251.5C 250.996,253.836 248.996,255.669 246.5,257C 241.833,259 237.167,261 232.5,263C 231.304,263.654 231.304,264.154 232.5,264.5C 251.14,259.236 270.14,257.403 289.5,259C 292.822,259.059 295.656,260.226 298,262.5C 298.315,263.908 297.982,265.241 297,266.5C 288.331,273.253 278.831,278.586 268.5,282.5C 267.711,282.783 267.044,283.283 266.5,284C 269.817,284.498 273.15,284.665 276.5,284.5C 289.023,285.131 301.023,287.964 312.5,293C 315.987,294.95 316.321,297.283 313.5,300C 306.014,302.396 298.347,304.063 290.5,305C 292.019,306.351 293.352,307.851 294.5,309.5C 293.5,310.333 292.5,311.167 291.5,312C 293.846,313.013 295.513,314.679 296.5,317C 294.112,320.779 290.612,322.612 286,322.5C 282.277,321.721 278.777,320.554 275.5,319C 278.017,321.349 280.35,323.849 282.5,326.5C 280.074,327.168 277.741,327.502 275.5,327.5C 280.773,333.361 283.773,340.028 284.5,347.5C 282.971,346.237 281.305,345.237 279.5,344.5C 278.438,342.243 276.772,341.077 274.5,341C 275.328,342.992 276.661,344.492 278.5,345.5C 281.835,349.675 285.002,354.008 288,358.5C 288.483,359.448 288.649,360.448 288.5,361.5C 285.231,361.116 282.397,359.782 280,357.5C 279.833,357.833 279.667,358.167 279.5,358.5C 285.038,365.244 288.705,372.91 290.5,381.5C 290.286,385.144 289.119,385.477 287,382.5C 286.833,383.333 286.667,384.167 286.5,385C 287.607,389.859 288.44,394.692 289,399.5C 287.404,396.631 285.57,393.964 283.5,391.5C 283.217,390.711 282.717,390.044 282,389.5C 281.501,393.821 281.334,398.154 281.5,402.5C 281.132,407.775 279.299,412.441 276,416.5C 274.392,424.822 275.892,432.488 280.5,439.5C 280.5,439.833 280.5,440.167 280.5,440.5C 234.167,440.5 187.833,440.5 141.5,440.5C 141.5,440.167 141.5,439.833 141.5,439.5C 142.281,432.403 144.614,425.903 148.5,420C 144.392,420.721 140.725,422.554 137.5,425.5C 137.167,425.167 136.833,424.833 136.5,424.5C 138.076,422.021 139.076,419.354 139.5,416.5C 138.5,416.5 137.5,416.5 136.5,416.5C 137.126,413.685 138.46,411.185 140.5,409C 147.003,404.914 153.67,401.081 160.5,397.5C 155.108,396.357 149.775,396.69 144.5,398.5C 143.5,398.167 142.5,397.833 141.5,397.5C 142.748,395.541 144.415,394.041 146.5,393C 154.097,390.58 161.431,387.58 168.5,384C 170,382.5 171.5,381 173,379.5C 176.524,372.215 177.857,364.548 177,356.5C 176.332,352.501 174.165,349.668 170.5,348C 161.984,348.544 153.65,350.21 145.5,353C 144.919,353.893 144.585,354.893 144.5,356C 145.812,359.116 146.812,362.282 147.5,365.5C 145.801,365.66 144.134,365.494 142.5,365C 127.351,357.942 121.518,346.108 125,329.5C 129.349,313.144 139.849,303.977 156.5,302C 155.101,300.938 154.101,299.605 153.5,298C 154.541,294.623 156.041,291.456 158,288.5C 162.833,283.667 167.667,278.833 172.5,274C 179.572,267.547 187.739,263.047 197,260.5C 199.687,260.198 201.687,261.198 203,263.5C 214.574,259.255 226.074,254.921 237.5,250.5 Z"/></g>
<g><path style="opacity:1" fill="#e98da0" d="M 268.5,282.5 C 271.167,283.167 273.833,283.833 276.5,284.5C 273.15,284.665 269.817,284.498 266.5,284C 267.044,283.283 267.711,282.783 268.5,282.5 Z"/></g>
<g><path style="opacity:1" fill="#e77586" d="M 279.5,344.5 C 278.833,344.5 278.5,344.833 278.5,345.5C 276.661,344.492 275.328,342.992 274.5,341C 276.772,341.077 278.438,342.243 279.5,344.5 Z"/></g>
<g><path style="opacity:1" fill="#f0afbc" d="M 283.5,391.5 C 282.833,395.167 282.167,398.833 281.5,402.5C 281.334,398.154 281.501,393.821 282,389.5C 282.717,390.044 283.217,390.711 283.5,391.5 Z"/></g>
<g><path style="opacity:0.974" fill="#000000" d="M -0.5,470.5 C 10.1667,470.5 20.8333,470.5 31.5,470.5C 31.5,482.833 31.5,495.167 31.5,507.5C 38.5,507.5 45.5,507.5 52.5,507.5C 52.5,495.167 52.5,482.833 52.5,470.5C 62.8333,470.5 73.1667,470.5 83.5,470.5C 83.5,504.833 83.5,539.167 83.5,573.5C 73.1667,573.5 62.8333,573.5 52.5,573.5C 52.5,560.5 52.5,547.5 52.5,534.5C 45.5,534.5 38.5,534.5 31.5,534.5C 31.5,547.5 31.5,560.5 31.5,573.5C 20.8333,573.5 10.1667,573.5 -0.5,573.5C -0.5,539.167 -0.5,504.833 -0.5,470.5 Z"/></g>
<g><path style="opacity:0.971" fill="#000000" d="M 118.5,470.5 C 131.517,470.168 144.517,470.501 157.5,471.5C 167.149,505.432 176.483,539.432 185.5,573.5C 173.833,573.5 162.167,573.5 150.5,573.5C 149.885,568.424 148.885,563.424 147.5,558.5C 140.532,557.503 133.532,557.17 126.5,557.5C 126.073,562.803 125.073,567.97 123.5,573C 112.172,573.5 100.838,573.667 89.5,573.5C 98.5583,538.992 108.225,504.659 118.5,470.5 Z M 136.5,500.5 C 138.817,511.708 141.151,523.041 143.5,534.5C 139.555,535.491 135.555,535.824 131.5,535.5C 133.709,523.91 135.376,512.243 136.5,500.5 Z"/></g>
<g><path style="opacity:0.978" fill="#000000" d="M 191.5,470.5 C 209.223,470.055 226.889,470.555 244.5,472C 260.123,477.046 267.456,487.879 266.5,504.5C 266.842,511.802 265.009,518.469 261,524.5C 258.317,527.016 255.817,529.683 253.5,532.5C 259.8,543.962 266.3,555.296 273,566.5C 274.301,568.365 274.635,570.365 274,572.5C 263.228,573.819 252.395,573.819 241.5,572.5C 235.5,561.167 229.5,549.833 223.5,538.5C 222.501,550.148 222.168,561.814 222.5,573.5C 212.167,573.5 201.833,573.5 191.5,573.5C 191.5,539.167 191.5,504.833 191.5,470.5 Z M 222.5,495.5 C 234.162,493.997 238.662,498.997 236,510.5C 235.535,511.931 234.701,513.097 233.5,514C 229.974,515.337 226.308,515.837 222.5,515.5C 222.5,508.833 222.5,502.167 222.5,495.5 Z"/></g>
<g><path style="opacity:0.981" fill="#000000" d="M 279.5,470.5 C 297.214,470.07 314.881,470.57 332.5,472C 344.549,475.382 351.716,483.216 354,495.5C 358.495,528.837 343.995,544.171 310.5,541.5C 310.5,552.167 310.5,562.833 310.5,573.5C 300.167,573.5 289.833,573.5 279.5,573.5C 279.5,539.167 279.5,504.833 279.5,470.5 Z M 310.5,494.5 C 319.742,493.096 324.742,496.93 325.5,506C 324.742,515.07 319.742,518.904 310.5,517.5C 310.5,509.833 310.5,502.167 310.5,494.5 Z"/></g>
<g><path style="opacity:0.972" fill="#000000" d="M 440.5,470.5 C 440.5,471.5 440.5,472.5 440.5,473.5C 430.363,493.105 420.196,512.772 410,532.5C 409.5,546.163 409.333,559.829 409.5,573.5C 399.167,573.5 388.833,573.5 378.5,573.5C 378.667,559.829 378.5,546.163 378,532.5C 367.017,512.201 356.85,491.534 347.5,470.5C 359.833,470.5 372.167,470.5 384.5,470.5C 387.352,482.56 390.519,494.56 394,506.5C 397.173,494.475 400.339,482.475 403.5,470.5C 415.833,470.5 428.167,470.5 440.5,470.5 Z"/></g>
<g><path style="opacity:0.906" fill="#000000" d="M 140.5,630.5 C 136.5,630.5 132.5,630.5 128.5,630.5C 119.799,624.929 116.632,616.929 119,606.5C 124.061,594.565 132.561,591.398 144.5,597C 143.761,600.487 142.927,603.987 142,607.5C 135.389,602.886 131.223,604.552 129.5,612.5C 130.653,620.334 134.653,622.334 141.5,618.5C 142.086,618.709 142.586,619.043 143,619.5C 143.339,622.036 143.839,624.536 144.5,627C 143.653,628.771 142.32,629.937 140.5,630.5 Z"/></g>
<g><path style="opacity:0.931" fill="#000000" d="M 147.5,595.5 C 154.589,595.116 161.589,595.616 168.5,597C 172.305,601.091 173.472,605.924 172,611.5C 171.215,613.286 170.049,614.786 168.5,616C 170.707,620.247 173.04,624.414 175.5,628.5C 167.03,631.539 161.53,628.873 159,620.5C 158.502,623.482 158.335,626.482 158.5,629.5C 154.833,629.5 151.167,629.5 147.5,629.5C 147.5,618.167 147.5,606.833 147.5,595.5 Z M 158.5,604.5 C 163.394,605.54 163.727,607.54 159.5,610.5C 158.534,608.604 158.201,606.604 158.5,604.5 Z"/></g>
<g><path style="opacity:0.938" fill="#000000" d="M 176.5,595.5 C 183.167,595.5 189.833,595.5 196.5,595.5C 196.963,598.482 197.296,601.482 197.5,604.5C 194.167,604.5 190.833,604.5 187.5,604.5C 187.5,605.833 187.5,607.167 187.5,608.5C 190.5,608.5 193.5,608.5 196.5,608.5C 196.5,611.167 196.5,613.833 196.5,616.5C 193.5,616.5 190.5,616.5 187.5,616.5C 187.5,617.833 187.5,619.167 187.5,620.5C 190.833,620.5 194.167,620.5 197.5,620.5C 197.492,623.545 197.159,626.545 196.5,629.5C 189.833,629.5 183.167,629.5 176.5,629.5C 176.5,618.167 176.5,606.833 176.5,595.5 Z"/></g>
<g><path style="opacity:0.929" fill="#000000" d="M 207.5,595.5 C 211.846,595.334 216.179,595.501 220.5,596C 223.833,607 227.167,618 230.5,629C 226.179,629.499 221.846,629.666 217.5,629.5C 217.5,627.833 217.5,626.167 217.5,624.5C 215.167,624.5 212.833,624.5 210.5,624.5C 210.5,626.167 210.5,627.833 210.5,629.5C 206.116,629.826 201.783,629.492 197.5,628.5C 200.994,617.517 204.328,606.517 207.5,595.5 Z M 213.5,608.5 C 214.266,610.684 214.933,613.018 215.5,615.5C 214.675,616.386 213.675,616.719 212.5,616.5C 213.092,613.873 213.425,611.206 213.5,608.5 Z"/></g>
<g><path style="opacity:0.946" fill="#000000" d="M 226.5,595.5 C 234.833,595.5 243.167,595.5 251.5,595.5C 251.5,598.833 251.5,602.167 251.5,605.5C 249.167,605.5 246.833,605.5 244.5,605.5C 244.5,613.5 244.5,621.5 244.5,629.5C 240.833,629.5 237.167,629.5 233.5,629.5C 233.5,621.5 233.5,613.5 233.5,605.5C 231.167,605.5 228.833,605.5 226.5,605.5C 226.5,602.167 226.5,598.833 226.5,595.5 Z"/></g>
<g><path style="opacity:0.925" fill="#000000" d="M 253.5,595.5 C 257.167,595.5 260.833,595.5 264.5,595.5C 264.5,606.833 264.5,618.167 264.5,629.5C 260.833,629.5 257.167,629.5 253.5,629.5C 253.5,618.167 253.5,606.833 253.5,595.5 Z"/></g>
<g><path style="opacity:0.908" fill="#000000" d="M 289.5,630.5 C 284.833,630.5 280.167,630.5 275.5,630.5C 272.344,618.876 269.344,607.209 266.5,595.5C 270.555,595.176 274.555,595.509 278.5,596.5C 279.811,602.556 281.311,608.556 283,614.5C 284.362,608.19 285.529,601.857 286.5,595.5C 290.884,595.174 295.217,595.508 299.5,596.5C 295.959,607.787 292.626,619.12 289.5,630.5 Z"/></g>
<g><path style="opacity:0.922" fill="#000000" d="M 300.5,595.5 C 307.5,595.5 314.5,595.5 321.5,595.5C 321.5,598.5 321.5,601.5 321.5,604.5C 318.167,604.5 314.833,604.5 311.5,604.5C 311.5,605.833 311.5,607.167 311.5,608.5C 314.5,608.5 317.5,608.5 320.5,608.5C 320.5,611.167 320.5,613.833 320.5,616.5C 317.5,616.5 314.5,616.5 311.5,616.5C 311.5,617.833 311.5,619.167 311.5,620.5C 314.833,620.5 318.167,620.5 321.5,620.5C 321.5,623.5 321.5,626.5 321.5,629.5C 314.5,629.5 307.5,629.5 300.5,629.5C 300.5,618.167 300.5,606.833 300.5,595.5 Z"/></g>
</svg>
