<svg width="98" height="18" viewBox="0 0 98 18" fill="none" xmlns="http://www.w3.org/2000/svg">
<path d="M9 1.61804L10.5451 6.37336L10.6574 6.71885H11.0206H16.0207L11.9755 9.6578L11.6817 9.87132L11.7939 10.2168L13.339 14.9721L9.29389 12.0332L9 11.8197L8.70611 12.0332L4.66099 14.9721L6.20609 10.2168L6.31834 9.87132L6.02445 9.6578L1.97933 6.71885H6.97937H7.34265L7.4549 6.37336L9 1.61804Z" fill="#111111" stroke="#111111"/>
<path d="M29 1.61804L30.5451 6.37336L30.6574 6.71885H31.0206H36.0207L31.9755 9.6578L31.6817 9.87132L31.7939 10.2168L33.339 14.9721L29.2939 12.0332L29 11.8197L28.7061 12.0332L24.661 14.9721L26.2061 10.2168L26.3183 9.87132L26.0245 9.6578L21.9793 6.71885H26.9794H27.3426L27.4549 6.37336L29 1.61804Z" fill="#111111" stroke="#111111"/>
<path d="M49 1.61804L50.5451 6.37336L50.6574 6.71885H51.0206H56.0207L51.9755 9.6578L51.6817 9.87132L51.7939 10.2168L53.339 14.9721L49.2939 12.0332L49 11.8197L48.7061 12.0332L44.661 14.9721L46.2061 10.2168L46.3183 9.87132L46.0245 9.6578L41.9793 6.71885H46.9794H47.3426L47.4549 6.37336L49 1.61804Z" fill="#111111" stroke="#111111"/>
<path d="M69 1.61804L70.5451 6.37336L70.6574 6.71885H71.0206H76.0207L71.9755 9.6578L71.6817 9.87132L71.7939 10.2168L73.339 14.9721L69.2939 12.0332L69 11.8197L68.7061 12.0332L64.661 14.9721L66.2061 10.2168L66.3183 9.87132L66.0245 9.6578L61.9793 6.71885H66.9794H67.3426L67.4549 6.37336L69 1.61804Z" fill="#111111" stroke="#111111"/>
<path d="M89 1.61804L90.5451 6.37336L90.6574 6.71885H91.0206H96.0207L91.9755 9.6578L91.6817 9.87132L91.7939 10.2168L93.339 14.9721L89.2939 12.0332L89 11.8197L88.7061 12.0332L84.661 14.9721L86.2061 10.2168L86.3183 9.87132L86.0245 9.6578L81.9793 6.71885H86.9794H87.3426L87.4549 6.37336L89 1.61804Z" fill="#111111" stroke="#111111"/>
</svg>
