<svg width="16" height="16" viewBox="0 0 16 16" fill="none" xmlns="http://www.w3.org/2000/svg">
<g clip-path="url(#clip0_1339_436)">
<path d="M15.3346 14.3893H15.486L15.196 13.9506C15.3733 13.9506 15.4673 13.8379 15.4686 13.6999C15.4686 13.6946 15.4686 13.6886 15.468 13.6833C15.468 13.4953 15.3546 13.4053 15.122 13.4053H14.746V14.3893H14.8873V13.9606H15.0613L15.3346 14.3893ZM15.0513 13.8493H14.8873V13.5166H15.0953C15.2026 13.5166 15.3253 13.5339 15.3253 13.6746C15.3253 13.8359 15.202 13.8493 15.0513 13.8493Z" fill="#111111"/>
<path d="M11.5273 12.7154H9.52267V9.57608C9.52267 8.82741 9.50934 7.86408 8.48 7.86408C7.436 7.86408 7.276 8.67941 7.276 9.52208V12.7154H5.272V6.25941H7.19667V7.14141H7.22333C7.616 6.47075 8.34534 6.07008 9.122 6.09875C11.154 6.09875 11.528 7.43541 11.528 9.17341L11.5273 12.7154ZM3.01 5.37675C2.36733 5.37675 1.84667 4.85608 1.84667 4.21341C1.84667 3.57075 2.36733 3.05008 3.01 3.05008C3.65267 3.05008 4.17333 3.57075 4.17333 4.21341C4.17333 4.85608 3.65267 5.37675 3.01 5.37675ZM4.012 12.7154H2.00533V6.25941H4.012V12.7154ZM12.5267 1.18875H0.998C0.453333 1.18275 0.00666667 1.61941 0 2.16408V13.7401C0.00666667 14.2854 0.453333 14.7221 0.998 14.7161H12.5267C13.0727 14.7227 13.5213 14.2861 13.5287 13.7401V2.16341C13.5207 1.61741 13.072 1.18075 12.5267 1.18808" fill="#111111"/>
<path d="M15.0687 12.9673C14.5593 12.972 14.15 13.3893 14.1553 13.8986C14.16 14.408 14.5773 14.8173 15.0867 14.812C15.596 14.8073 16.0053 14.39 16 13.8806C15.9953 13.378 15.5887 12.972 15.0867 12.9673H15.0687ZM15.09 14.706C14.6433 14.7133 14.254 14.358 14.2467 13.9113C14.2393 13.4646 14.5953 13.0966 15.042 13.0893C15.4887 13.082 15.8567 13.438 15.864 13.8846C15.864 13.8893 15.864 13.8933 15.864 13.898C15.8733 14.3346 15.5267 14.6966 15.09 14.706H15.0693H15.09Z" fill="#111111"/>
</g>
<defs>
<clipPath id="clip0_1339_436">
<rect width="16" height="16" fill="white"/>
</clipPath>
</defs>
</svg>
