<svg width="16" height="16" viewBox="0 0 16 16" fill="none" xmlns="http://www.w3.org/2000/svg">
<g clip-path="url(#clip0_1339_441)">
<path d="M14.362 4.73623C14.3713 4.87689 14.3713 5.01823 14.3713 5.16023C14.3713 9.49823 11.0687 14.5002 5.03133 14.5002V14.4976C3.248 14.5002 1.50133 13.9896 0 13.0262C0.259333 13.0576 0.52 13.0729 0.781333 13.0736C2.26 13.0749 3.696 12.5789 4.858 11.6656C3.45333 11.6389 2.22133 10.7229 1.79133 9.38556C2.28333 9.48023 2.79 9.4609 3.27333 9.32956C1.74133 9.02024 0.64 7.67423 0.64 6.11156C0.64 6.09756 0.64 6.08356 0.64 6.07023C1.09667 6.32489 1.60733 6.46556 2.13 6.48089C0.687333 5.51756 0.242 3.59889 1.11333 2.09889C2.78 4.14956 5.23933 5.39623 7.87867 5.52889C7.614 4.38889 7.976 3.19423 8.828 2.39223C10.15 1.14889 12.2293 1.21289 13.4727 2.53489C14.208 2.39023 14.9127 2.12024 15.5573 1.73823C15.312 2.49823 14.7993 3.14356 14.114 3.55423C14.7653 3.47623 15.4007 3.30223 16 3.03689C15.5593 3.69623 15.0047 4.27156 14.362 4.73623Z" fill="white"/>
</g>
<defs>
<clipPath id="clip0_1339_441">
<rect width="16" height="16" fill="white"/>
</clipPath>
</defs>
</svg>
